<svg xmlns="http://www.w3.org/2000/svg" xmlns:xlink="http://www.w3.org/1999/xlink" width="1080" zoomAndPan="magnify" viewBox="0 0 810 1012.49997" height="1350" preserveAspectRatio="xMidYMid meet" version="1.0"><defs><g/><clipPath id="f82e3ea41f"><path d="M 73.398438 142.707031 L 737 142.707031 L 737 802.425781 L 73.398438 802.425781 Z M 73.398438 142.707031 " clip-rule="nonzero"/></clipPath><clipPath id="3808de89bc"><path d="M 405 142.707031 C 221.863281 142.707031 73.398438 290.386719 73.398438 472.566406 C 73.398438 654.742188 221.863281 802.425781 405 802.425781 C 588.136719 802.425781 736.601562 654.742188 736.601562 472.566406 C 736.601562 290.386719 588.136719 142.707031 405 142.707031 Z M 405 142.707031 " clip-rule="nonzero"/></clipPath><clipPath id="c7dfa49305"><path d="M 0.398438 0.707031 L 663 0.707031 L 663 660.425781 L 0.398438 660.425781 Z M 0.398438 0.707031 " clip-rule="nonzero"/></clipPath><clipPath id="d7daa9c98f"><path d="M 332 0.707031 C 148.863281 0.707031 0.398438 148.386719 0.398438 330.566406 C 0.398438 512.742188 148.863281 660.425781 332 660.425781 C 515.136719 660.425781 663.601562 512.742188 663.601562 330.566406 C 663.601562 148.386719 515.136719 0.707031 332 0.707031 Z M 332 0.707031 " clip-rule="nonzero"/></clipPath><clipPath id="bb2f4485ba"><rect x="0" width="664" y="0" height="661"/></clipPath><clipPath id="b513764953"><rect x="0" width="426" y="0" height="529"/></clipPath><clipPath id="cb6d2d4540"><path d="M 400 368 L 585 368 L 585 469 L 400 469 Z M 400 368 " clip-rule="nonzero"/></clipPath><clipPath id="1ebd3cdc1f"><path d="M 417.578125 344.875 L 586.535156 370.660156 L 567.875 492.933594 L 398.917969 467.148438 Z M 417.578125 344.875 " clip-rule="nonzero"/></clipPath><clipPath id="b1ac8ed321"><path d="M 417.578125 344.875 L 586.535156 370.660156 L 567.875 492.933594 L 398.917969 467.148438 Z M 417.578125 344.875 " clip-rule="nonzero"/></clipPath><clipPath id="cf9eb649a1"><path d="M 477 343 L 530 343 L 530 396 L 477 396 Z M 477 343 " clip-rule="nonzero"/></clipPath><clipPath id="3668766a84"><path d="M 474.132812 345.628906 L 542.007812 338.808594 L 548.078125 399.226562 L 480.203125 406.046875 Z M 474.132812 345.628906 " clip-rule="nonzero"/></clipPath><clipPath id="4507fbab32"><path d="M 474.132812 345.628906 L 542.007812 338.808594 L 548.078125 399.226562 L 480.203125 406.046875 Z M 474.132812 345.628906 " clip-rule="nonzero"/></clipPath><clipPath id="fccd600d18"><path d="M 476 343 L 531 343 L 531 397 L 476 397 Z M 476 343 " clip-rule="nonzero"/></clipPath><clipPath id="7a40554a2f"><path d="M 474.132812 345.628906 L 542.007812 338.808594 L 548.078125 399.226562 L 480.203125 406.046875 Z M 474.132812 345.628906 " clip-rule="nonzero"/></clipPath><clipPath id="b2268fd83a"><path d="M 474.132812 345.628906 L 542.007812 338.808594 L 548.078125 399.226562 L 480.203125 406.046875 Z M 474.132812 345.628906 " clip-rule="nonzero"/></clipPath><clipPath id="2837213668"><path d="M 516 370 L 546 370 L 546 401 L 516 401 Z M 516 370 " clip-rule="nonzero"/></clipPath><clipPath id="81020accc8"><path d="M 474.132812 345.628906 L 542.007812 338.808594 L 548.078125 399.226562 L 480.203125 406.046875 Z M 474.132812 345.628906 " clip-rule="nonzero"/></clipPath><clipPath id="31976bf6e3"><path d="M 474.132812 345.628906 L 542.007812 338.808594 L 548.078125 399.226562 L 480.203125 406.046875 Z M 474.132812 345.628906 " clip-rule="nonzero"/></clipPath><clipPath id="a64c324a4b"><path d="M 515 369 L 547 369 L 547 401 L 515 401 Z M 515 369 " clip-rule="nonzero"/></clipPath><clipPath id="f554a2afe5"><path d="M 474.132812 345.628906 L 542.007812 338.808594 L 548.078125 399.226562 L 480.203125 406.046875 Z M 474.132812 345.628906 " clip-rule="nonzero"/></clipPath><clipPath id="286942b17e"><path d="M 474.132812 345.628906 L 542.007812 338.808594 L 548.078125 399.226562 L 480.203125 406.046875 Z M 474.132812 345.628906 " clip-rule="nonzero"/></clipPath><clipPath id="97f96d4e14"><rect x="0" width="204" y="0" height="76"/></clipPath><clipPath id="caf0585a8c"><rect x="0" width="38" y="0" height="188"/></clipPath><clipPath id="36c6f393dd"><path d="M 164 425 L 413 425 L 413 694 L 164 694 Z M 164 425 " clip-rule="nonzero"/></clipPath><clipPath id="9c29bf7140"><path d="M 131.335938 457.152344 L 399.988281 418.882812 L 433.820312 656.367188 L 165.164062 694.636719 Z M 131.335938 457.152344 " clip-rule="nonzero"/></clipPath><clipPath id="0f9436be45"><path d="M 131.335938 457.152344 L 399.988281 418.882812 L 433.820312 656.367188 L 165.164062 694.636719 Z M 131.335938 457.152344 " clip-rule="nonzero"/></clipPath></defs><g clip-path="url(#f82e3ea41f)"><g clip-path="url(#3808de89bc)"><g transform="matrix(1, 0, 0, 1, 73, 142)"><g clip-path="url(#bb2f4485ba)"><g clip-path="url(#c7dfa49305)"><g clip-path="url(#d7daa9c98f)"><path fill="#ffffff" d="M 0.398438 0.707031 L 662.695312 0.707031 L 662.695312 660.425781 L 0.398438 660.425781 Z M 0.398438 0.707031 " fill-opacity="1" fill-rule="nonzero"/></g></g></g></g></g></g><g transform="matrix(1, 0, 0, 1, 192, 242)"><g clip-path="url(#b513764953)"><g fill="#293b7c" fill-opacity="1"><g transform="translate(0.705271, 395.673226)"><g><path d="M 276.015625 -112.203125 C 265.128906 -99.203125 253.363281 -87.785156 240.71875 -77.953125 C 228.082031 -68.117188 215.617188 -63.378906 203.328125 -63.734375 C 191.390625 -63.734375 179.359375 -68.5625 167.234375 -78.21875 C 155.117188 -87.875 143.445312 -99.203125 132.21875 -112.203125 L 115.890625 -132.21875 C 114.835938 -133.269531 113.695312 -133.53125 112.46875 -133 C 111.238281 -132.476562 111.148438 -131.515625 112.203125 -130.109375 L 163.296875 -60.046875 C 160.835938 -38.628906 151.878906 -22.738281 136.421875 -12.375 C 120.972656 -2.019531 103.066406 3.15625 82.703125 3.15625 C 68.648438 3.15625 55.390625 -0.613281 42.921875 -8.15625 C 30.460938 -15.707031 20.28125 -25.71875 12.375 -38.1875 C 4.476562 -50.65625 0.53125 -64.441406 0.53125 -79.546875 L 0.53125 -287.078125 C 0.53125 -302.523438 4.039062 -316.128906 11.0625 -327.890625 C 18.082031 -339.660156 27.210938 -349.144531 38.453125 -356.34375 C 49.691406 -363.539062 61.984375 -367.929688 75.328125 -369.515625 C 88.671875 -371.097656 101.835938 -369.34375 114.828125 -364.25 C 127.828125 -359.15625 139.238281 -350.285156 149.0625 -337.640625 L 203.859375 -267.0625 L 260.21875 -337.640625 C 270.394531 -350.285156 281.890625 -359.15625 294.703125 -364.25 C 307.523438 -369.34375 320.609375 -371.097656 333.953125 -369.515625 C 347.296875 -367.929688 359.585938 -363.539062 370.828125 -356.34375 C 382.066406 -349.144531 391.195312 -339.660156 398.21875 -327.890625 C 405.25 -316.128906 408.765625 -302.523438 408.765625 -287.078125 L 408.765625 -79.546875 C 408.765625 -64.441406 404.8125 -50.65625 396.90625 -38.1875 C 389 -25.71875 378.8125 -15.707031 366.34375 -8.15625 C 353.882812 -0.613281 340.628906 3.15625 326.578125 3.15625 C 306.210938 3.15625 288.300781 -2.019531 272.84375 -12.375 C 257.394531 -22.738281 248.445312 -38.628906 246 -60.046875 L 297.09375 -130.109375 C 297.789062 -131.160156 297.613281 -132.035156 296.5625 -132.734375 C 295.507812 -133.441406 294.457031 -133.269531 293.40625 -132.21875 Z M 276.015625 -112.203125 "/></g></g></g></g></g><g clip-path="url(#cb6d2d4540)"><g clip-path="url(#1ebd3cdc1f)"><g clip-path="url(#b1ac8ed321)"><path fill="#ffffff" d="M 575.152344 369.011719 C 568.953125 368.0625 563.117188 372.355469 562.171875 378.554688 C 561.691406 381.683594 562.566406 384.730469 564.304688 387.089844 L 518.347656 439.867188 C 517.222656 439.226562 515.949219 438.800781 514.585938 438.59375 C 510.433594 437.957031 506.445312 439.679688 503.996094 442.738281 L 477.539062 429.5625 C 477.648438 429.230469 477.699219 428.886719 477.761719 428.488281 C 478.707031 422.289062 474.417969 416.453125 468.214844 415.507812 C 462.015625 414.558594 456.179688 418.851562 455.234375 425.050781 C 454.964844 426.816406 455.109375 428.527344 455.625 430.117188 L 420.410156 449.894531 C 418.730469 447.949219 416.375 446.601562 413.644531 446.183594 C 407.441406 445.238281 401.605469 449.527344 400.660156 455.726562 C 399.710938 461.929688 404.003906 467.765625 410.203125 468.710938 C 416.40625 469.660156 422.242188 465.367188 423.1875 459.167969 C 423.457031 457.402344 423.3125 455.691406 422.796875 454.101562 L 458.007812 434.324219 C 459.691406 436.269531 462.046875 437.617188 464.777344 438.035156 C 468.929688 438.667969 472.917969 436.949219 475.367188 433.886719 L 501.824219 447.066406 C 501.714844 447.398438 501.660156 447.738281 501.601562 448.136719 C 500.65625 454.339844 504.945312 460.175781 511.148438 461.121094 C 517.347656 462.066406 523.183594 457.777344 524.128906 451.574219 C 524.609375 448.445312 523.734375 445.402344 522 443.042969 L 567.953125 390.265625 C 569.078125 390.902344 570.351562 391.332031 571.714844 391.539062 C 577.917969 392.484375 583.753906 388.195312 584.699219 381.992188 C 585.65625 375.734375 581.355469 369.957031 575.152344 369.011719 Z M 575.152344 369.011719 " fill-opacity="1" fill-rule="nonzero"/></g></g></g><g clip-path="url(#cf9eb649a1)"><g clip-path="url(#3668766a84)"><g clip-path="url(#4507fbab32)"><path fill="#ffffff" d="M 503.109375 383.191406 C 495.703125 382.964844 489.882812 376.773438 490.109375 369.367188 C 490.339844 361.957031 496.527344 356.140625 503.9375 356.367188 C 511.34375 356.59375 517.164062 362.785156 516.933594 370.195312 C 516.707031 377.597656 510.515625 383.417969 503.109375 383.191406 Z M 529.496094 370.613281 L 529.308594 366.554688 C 529.25 365.257812 528.144531 364.253906 526.847656 364.316406 L 524.351562 364.429688 C 523.824219 362.367188 522.992188 360.417969 521.910156 358.636719 L 523.75 356.929688 C 524.699219 356.039062 524.753906 354.550781 523.867188 353.597656 L 521.101562 350.632812 C 520.214844 349.679688 518.722656 349.628906 517.773438 350.515625 L 515.933594 352.222656 C 513.75 350.675781 511.253906 349.523438 508.558594 348.875 L 508.636719 346.375 C 508.675781 345.070312 507.65625 343.988281 506.355469 343.945312 L 502.300781 343.820312 C 501 343.78125 499.914062 344.800781 499.875 346.101562 L 499.796875 348.601562 C 496.652344 349.152344 493.738281 350.386719 491.214844 352.148438 L 489.394531 350.433594 C 488.449219 349.539062 486.957031 349.585938 486.066406 350.535156 L 483.285156 353.484375 C 482.394531 354.429688 482.433594 355.921875 483.382812 356.8125 L 485.199219 358.527344 C 483.753906 360.878906 482.746094 363.535156 482.292969 366.378906 L 479.792969 366.496094 C 478.492188 366.554688 477.488281 367.65625 477.546875 368.957031 L 477.738281 373.011719 C 477.796875 374.308594 478.902344 375.3125 480.199219 375.253906 L 482.699219 375.136719 C 483.230469 377.199219 484.054688 379.144531 485.136719 380.921875 L 483.308594 382.625 C 482.359375 383.511719 482.304688 385.003906 483.191406 385.957031 L 485.957031 388.921875 C 486.84375 389.875 488.335938 389.925781 489.285156 389.042969 L 491.117188 387.335938 C 493.304688 388.886719 495.800781 390.039062 498.5 390.6875 L 498.417969 393.1875 C 498.378906 394.488281 499.402344 395.570312 500.703125 395.613281 L 504.757812 395.738281 C 506.058594 395.78125 507.144531 394.757812 507.183594 393.457031 L 507.261719 390.957031 C 510.402344 390.402344 513.316406 389.167969 515.835938 387.402344 L 517.660156 389.125 C 518.609375 390.015625 520.097656 389.972656 520.988281 389.027344 L 523.773438 386.074219 C 524.667969 385.125 524.621094 383.636719 523.675781 382.746094 L 521.851562 381.027344 C 523.292969 378.675781 524.300781 376.03125 524.75 373.191406 L 527.253906 373.074219 C 528.554688 373.011719 529.558594 371.910156 529.496094 370.613281 " fill-opacity="1" fill-rule="nonzero"/></g></g></g><g clip-path="url(#fccd600d18)"><g clip-path="url(#7a40554a2f)"><g clip-path="url(#b2268fd83a)"><path stroke-linecap="round" transform="matrix(0.0288136, -0.00289559, -0.00289559, -0.0288136, 455.552807, 439.636744)" fill="none" stroke-linejoin="round" d="M 1828.887286 1775.191575 C 1575.199247 1808.548729 1396.59797 2041.375115 1429.955125 2295.063155 C 1463.446493 2548.737707 1696.138666 2727.352471 1949.960919 2693.981829 C 2203.648959 2660.624674 2382.250235 2427.798288 2348.745379 2173.989522 C 2315.401712 1920.435696 2082.575326 1741.83442 1828.887286 1775.191575 Z M 2778.935406 2116.252071 L 2786.506865 2256.348147 C 2788.971574 2301.109613 2754.45527 2339.419716 2709.680316 2341.750212 L 2623.52623 2346.476652 C 2612.528816 2419.16265 2590.671543 2489.008474 2559.644582 2553.946298 L 2628.753656 2606.245233 C 2664.442934 2633.568578 2671.460757 2684.515401 2644.285114 2720.325406 L 2559.498566 2831.743374 C 2532.322923 2867.553378 2481.228398 2874.450475 2445.552608 2847.261344 L 2376.443534 2794.962409 C 2306.758874 2855.650913 2224.97481 2903.862789 2134.6059 2935.448894 L 2145.922329 3021.076296 C 2151.769372 3065.768998 2120.475537 3106.466657 2075.930538 3112.434426 L 1937.047694 3130.729541 C 1892.489206 3136.563097 1851.657333 3105.28275 1845.823778 3060.724262 L 1834.507348 2975.09686 C 1724.563061 2967.03026 1620.177067 2934.680381 1527.391661 2882.862798 L 1470.768904 2948.068158 C 1441.37773 2982.067264 1389.946012 2985.609003 1356.067633 2956.070127 L 1250.323814 2864.341584 C 1216.458923 2834.936922 1212.648756 2783.53218 1242.187631 2749.653801 L 1298.676174 2684.461928 C 1240.89727 2608.655372 1197.098326 2520.869476 1171.710404 2424.726036 L 1085.408615 2429.33175 C 1040.512935 2431.809947 1002.216319 2397.427857 999.738122 2352.532177 L 992.314366 2212.556827 C 989.849656 2167.795361 1024.36596 2129.485258 1069.127426 2127.020548 L 1155.429215 2122.414834 C 1166.560842 2049.715349 1188.163175 1980.030714 1219.203624 1915.227105 L 1150.51068 1863.021921 C 1114.83489 1835.832791 1107.803579 1784.751753 1134.979222 1748.941749 L 1219.76577 1637.523781 C 1246.941413 1601.713776 1298.035938 1594.81668 1333.698241 1621.871596 L 1402.538886 1674.197506 C 1472.344272 1613.361301 1554.128336 1565.149424 1644.631461 1533.549832 L 1633.180817 1447.935917 C 1627.347262 1403.37743 1658.775311 1362.666283 1703.320311 1356.698514 L 1842.203155 1338.403398 C 1886.748155 1332.435629 1927.593516 1363.85019 1933.427071 1408.408678 L 1944.7435 1494.03608 C 2054.567061 1502.250382 2158.953055 1534.600261 2251.617735 1586.565546 L 2308.34773 1521.07827 C 2337.886606 1487.199891 2389.170622 1483.537425 2423.035514 1512.942087 L 2528.927034 1604.791356 C 2562.939628 1634.316744 2566.467879 1685.614248 2537.063217 1719.479139 L 2480.319734 1784.832202 C 2537.964423 1860.652245 2581.722904 1948.035499 2606.963124 2044.058212 L 2693.399127 2039.43901 C 2738.308296 2037.095027 2776.604911 2071.477117 2778.935406 2116.252071 Z M 2778.935406 2116.252071 " stroke="#231f1f" stroke-width="52.472" stroke-opacity="1" stroke-miterlimit="10"/></g></g></g><g clip-path="url(#2837213668)"><g clip-path="url(#81020accc8)"><g clip-path="url(#31976bf6e3)"><path fill="#ffffff" d="M 530.179688 378.859375 C 526.949219 379.183594 524.441406 381.878906 524.339844 385.128906 C 524.285156 386.867188 524.910156 388.519531 526.101562 389.785156 C 527.289062 391.050781 528.902344 391.773438 530.636719 391.828125 C 530.925781 391.835938 531.214844 391.828125 531.5 391.800781 C 534.726562 391.476562 537.238281 388.777344 537.339844 385.53125 C 537.390625 383.792969 536.765625 382.144531 535.574219 380.875 C 534.386719 379.613281 532.777344 378.882812 531.039062 378.832031 C 530.753906 378.820312 530.464844 378.828125 530.179688 378.859375 Z M 531.75 400.128906 C 531.660156 400.140625 531.574219 400.140625 531.480469 400.136719 L 529.289062 400.070312 C 528.167969 400.035156 527.285156 399.09375 527.316406 397.976562 L 527.339844 397.222656 C 526.230469 396.898438 525.179688 396.421875 524.199219 395.796875 L 523.652344 396.3125 C 523.324219 396.617188 522.914062 396.800781 522.46875 396.847656 C 521.832031 396.910156 521.210938 396.679688 520.773438 396.210938 L 519.277344 394.601562 C 518.515625 393.78125 518.5625 392.492188 519.382812 391.726562 L 519.929688 391.214844 C 519.550781 390.511719 519.242188 389.777344 519 389.015625 L 518.25 389.050781 C 517.707031 389.074219 517.1875 388.890625 516.785156 388.523438 C 516.386719 388.15625 516.148438 387.65625 516.125 387.113281 L 516.023438 384.921875 C 515.972656 383.839844 516.773438 382.910156 517.851562 382.800781 C 517.886719 382.796875 517.921875 382.792969 517.960938 382.792969 L 518.710938 382.757812 C 518.960938 381.570312 519.378906 380.441406 519.960938 379.378906 L 519.417969 378.867188 C 519.019531 378.492188 518.796875 377.988281 518.777344 377.445312 C 518.765625 376.902344 518.960938 376.386719 519.332031 375.988281 L 520.839844 374.390625 C 521.175781 374.035156 521.625 373.8125 522.117188 373.761719 C 522.703125 373.703125 523.28125 373.902344 523.714844 374.308594 L 524.261719 374.824219 C 525.441406 374.082031 526.726562 373.550781 528.078125 373.242188 L 528.105469 372.492188 C 528.136719 371.476562 528.921875 370.632812 529.933594 370.53125 C 530.019531 370.519531 530.109375 370.519531 530.203125 370.519531 L 532.394531 370.589844 C 533.515625 370.625 534.398438 371.566406 534.367188 372.683594 L 534.34375 373.4375 C 535.453125 373.761719 536.5 374.242188 537.480469 374.863281 L 538.035156 374.347656 C 538.359375 374.039062 538.769531 373.855469 539.214844 373.8125 C 539.855469 373.746094 540.472656 373.980469 540.90625 374.449219 L 542.40625 376.054688 C 543.167969 376.875 543.125 378.164062 542.304688 378.929688 L 541.75 379.445312 C 542.128906 380.148438 542.441406 380.886719 542.675781 381.648438 L 543.425781 381.613281 C 544.546875 381.5625 545.503906 382.433594 545.554688 383.550781 L 545.65625 385.742188 C 545.707031 386.824219 544.902344 387.753906 543.828125 387.863281 C 543.789062 387.867188 543.757812 387.871094 543.71875 387.871094 L 542.964844 387.90625 C 542.71875 389.085938 542.296875 390.214844 541.71875 391.277344 L 542.265625 391.792969 C 543.082031 392.5625 543.121094 393.855469 542.351562 394.671875 L 540.84375 396.269531 C 540.507812 396.625 540.058594 396.847656 539.570312 396.898438 C 538.980469 396.957031 538.398438 396.757812 537.96875 396.351562 L 537.417969 395.835938 C 536.238281 396.578125 534.960938 397.105469 533.601562 397.414062 L 533.578125 398.167969 C 533.546875 399.183594 532.761719 400.027344 531.75 400.128906 " fill-opacity="1" fill-rule="nonzero"/></g></g></g><g clip-path="url(#a64c324a4b)"><g clip-path="url(#f554a2afe5)"><g clip-path="url(#286942b17e)"><path fill="#ffffff" d="M 531.421875 391.042969 C 531.171875 391.066406 530.914062 391.078125 530.664062 391.070312 C 529.128906 391.023438 527.703125 390.382812 526.652344 389.261719 C 525.605469 388.144531 525.050781 386.683594 525.101562 385.152344 C 525.1875 382.28125 527.40625 379.902344 530.253906 379.617188 C 530.507812 379.589844 530.761719 379.582031 531.015625 379.589844 C 532.550781 379.636719 533.972656 380.277344 535.023438 381.394531 C 536.074219 382.511719 536.625 383.972656 536.578125 385.507812 C 536.488281 388.375 534.273438 390.753906 531.421875 391.042969 Z M 529.855469 369.773438 C 528.46875 369.914062 527.386719 371.074219 527.34375 372.46875 L 527.339844 372.644531 C 526.300781 372.929688 525.304688 373.339844 524.363281 373.875 L 524.234375 373.753906 C 523.644531 373.199219 522.84375 372.925781 522.039062 373.003906 C 521.367188 373.074219 520.746094 373.378906 520.285156 373.871094 L 518.78125 375.464844 C 518.265625 376.011719 518 376.722656 518.019531 377.464844 C 518.039062 378.210938 518.351562 378.90625 518.894531 379.417969 L 519.023438 379.535156 C 518.632812 380.335938 518.324219 381.167969 518.101562 382.027344 L 517.925781 382.035156 C 517.875 382.035156 517.824219 382.042969 517.773438 382.046875 C 516.296875 382.195312 515.191406 383.472656 515.261719 384.957031 L 515.363281 387.148438 C 515.398438 387.894531 515.722656 388.578125 516.273438 389.082031 C 516.824219 389.585938 517.539062 389.84375 518.285156 389.808594 L 518.464844 389.804688 C 518.621094 390.226562 518.796875 390.644531 518.992188 391.050781 L 518.863281 391.171875 C 517.738281 392.222656 517.671875 393.992188 518.722656 395.121094 L 520.21875 396.726562 C 520.820312 397.371094 521.667969 397.6875 522.542969 397.601562 C 523.15625 397.539062 523.71875 397.285156 524.171875 396.867188 L 524.296875 396.746094 C 525.019531 397.160156 525.777344 397.503906 526.5625 397.773438 L 526.558594 397.949219 C 526.511719 399.492188 527.726562 400.78125 529.261719 400.832031 L 531.457031 400.894531 C 531.582031 400.902344 531.707031 400.898438 531.828125 400.886719 C 533.214844 400.746094 534.296875 399.585938 534.339844 398.191406 L 534.34375 398.011719 C 535.382812 397.726562 536.378906 397.316406 537.316406 396.78125 L 537.449219 396.90625 C 538.039062 397.460938 538.839844 397.734375 539.644531 397.652344 C 540.3125 397.585938 540.9375 397.277344 541.398438 396.789062 L 542.90625 395.191406 C 543.960938 394.070312 543.910156 392.296875 542.789062 391.242188 L 542.65625 391.117188 C 543.042969 390.320312 543.351562 389.492188 543.574219 388.640625 L 543.753906 388.628906 C 543.804688 388.628906 543.855469 388.621094 543.902344 388.617188 C 545.378906 388.46875 546.484375 387.191406 546.414062 385.710938 L 546.3125 383.515625 C 546.242188 381.976562 544.933594 380.785156 543.394531 380.855469 L 543.214844 380.859375 C 543.0625 380.4375 542.886719 380.019531 542.6875 379.609375 L 542.820312 379.484375 C 543.949219 378.433594 544.011719 376.664062 542.960938 375.535156 L 541.464844 373.933594 C 540.863281 373.285156 540.015625 372.964844 539.136719 373.054688 C 538.527344 373.117188 537.964844 373.371094 537.515625 373.792969 L 537.382812 373.914062 C 536.664062 373.5 535.90625 373.15625 535.121094 372.886719 L 535.125 372.710938 C 535.171875 371.167969 533.957031 369.878906 532.417969 369.828125 L 530.222656 369.761719 C 530.101562 369.757812 529.976562 369.761719 529.855469 369.773438 Z M 531.574219 392.554688 C 535.144531 392.195312 537.980469 389.238281 538.097656 385.554688 C 538.222656 381.546875 535.070312 378.195312 531.0625 378.070312 C 530.738281 378.058594 530.417969 378.070312 530.101562 378.105469 C 526.53125 378.460938 523.695312 381.421875 523.578125 385.105469 C 523.457031 389.117188 526.605469 392.464844 530.613281 392.585938 C 530.9375 392.597656 531.257812 392.585938 531.574219 392.554688 M 530.007812 371.285156 C 530.0625 371.28125 530.121094 371.277344 530.175781 371.28125 L 532.371094 371.347656 C 533.074219 371.371094 533.628906 371.957031 533.605469 372.660156 L 533.566406 374.015625 C 535.023438 374.367188 536.371094 374.992188 537.558594 375.828125 L 538.550781 374.902344 C 538.761719 374.707031 539.023438 374.59375 539.289062 374.566406 C 539.671875 374.527344 540.066406 374.664062 540.351562 374.964844 L 541.847656 376.570312 C 542.328125 377.085938 542.300781 377.894531 541.785156 378.375 L 540.789062 379.300781 C 541.375 380.265625 541.824219 381.316406 542.113281 382.433594 L 543.460938 382.371094 C 544.167969 382.339844 544.761719 382.882812 544.796875 383.585938 L 544.894531 385.777344 C 544.929688 386.460938 544.421875 387.039062 543.75 387.105469 L 543.683594 387.113281 L 542.328125 387.175781 C 542.082031 388.714844 541.539062 390.144531 540.757812 391.417969 L 541.746094 392.347656 C 542.257812 392.828125 542.285156 393.636719 541.800781 394.148438 L 540.292969 395.746094 C 540.074219 395.980469 539.789062 396.109375 539.492188 396.140625 C 539.140625 396.175781 538.769531 396.0625 538.492188 395.800781 L 537.503906 394.871094 C 536.136719 395.824219 534.5625 396.492188 532.863281 396.789062 L 532.820312 398.144531 C 532.800781 398.789062 532.300781 399.308594 531.675781 399.371094 C 531.621094 399.378906 531.5625 399.378906 531.507812 399.378906 L 529.3125 399.308594 C 528.609375 399.289062 528.058594 398.703125 528.078125 398 L 528.121094 396.644531 C 526.660156 396.296875 525.308594 395.671875 524.121094 394.832031 L 523.132812 395.753906 C 522.921875 395.949219 522.660156 396.0625 522.394531 396.089844 C 522.007812 396.128906 521.613281 395.996094 521.332031 395.691406 L 519.832031 394.082031 C 519.355469 393.570312 519.382812 392.765625 519.898438 392.28125 L 520.886719 391.359375 C 520.304688 390.398438 519.855469 389.347656 519.570312 388.230469 L 518.214844 388.292969 C 517.511719 388.324219 516.914062 387.78125 516.882812 387.078125 L 516.78125 384.886719 C 516.75 384.203125 517.257812 383.625 517.925781 383.554688 C 517.949219 383.554688 517.972656 383.554688 517.996094 383.550781 L 519.347656 383.488281 C 519.59375 381.949219 520.136719 380.511719 520.921875 379.238281 L 519.9375 378.3125 C 519.425781 377.828125 519.402344 377.023438 519.886719 376.511719 L 521.390625 374.914062 C 521.609375 374.679688 521.894531 374.546875 522.191406 374.519531 C 522.546875 374.484375 522.914062 374.59375 523.191406 374.859375 L 524.179688 375.789062 C 525.542969 374.832031 527.121094 374.164062 528.820312 373.867188 L 528.867188 372.515625 C 528.886719 371.871094 529.382812 371.347656 530.007812 371.285156 " fill-opacity="1" fill-rule="nonzero"/></g></g></g><g transform="matrix(1, 0, 0, 1, 409, 607)"><g clip-path="url(#97f96d4e14)"><g fill="#293b7c" fill-opacity="1"><g transform="translate(6.321691, 22.074618)"><g><path d="M 18.984375 18.90625 L 17.109375 17.046875 L 21.78125 11.578125 L 29.1875 2.359375 L 29.015625 2.1875 L 12.921875 9.03125 L 11.203125 7.328125 L 18.234375 -8.546875 L 18.03125 -8.75 L 9.015625 -1.484375 L 3.34375 3.328125 L 1.5625 1.5625 L 19.96875 -13.421875 L 22.34375 -11.046875 L 20.65625 -7.640625 L 14.796875 5.5 L 14.953125 5.640625 L 28.390625 -0.234375 L 31.65625 -1.78125 L 34 0.5625 Z M 18.984375 18.90625 "/></g></g></g><g fill="#293b7c" fill-opacity="1"><g transform="translate(29.13267, 43.733607)"><g><path d="M 18.765625 -10.15625 C 21.023438 -8.738281 22.347656 -6.984375 22.734375 -4.890625 C 23.128906 -2.796875 22.5625 -0.53125 21.03125 1.90625 C 19.382812 4.539062 17.457031 6.175781 15.25 6.8125 C 13.050781 7.445312 10.742188 7.007812 8.328125 5.5 C 6.085938 4.101562 4.773438 2.335938 4.390625 0.203125 C 4.015625 -1.929688 4.613281 -4.253906 6.1875 -6.765625 C 7.800781 -9.347656 9.703125 -10.929688 11.890625 -11.515625 C 14.078125 -12.097656 16.367188 -11.644531 18.765625 -10.15625 Z M 17.3125 -8.328125 C 15.664062 -9.347656 14.148438 -9.640625 12.765625 -9.203125 C 11.378906 -8.765625 10.054688 -7.535156 8.796875 -5.515625 C 7.441406 -3.347656 6.851562 -1.53125 7.03125 -0.0625 C 7.21875 1.40625 8.125 2.644531 9.75 3.65625 C 11.40625 4.695312 12.9375 4.988281 14.34375 4.53125 C 15.757812 4.082031 17.101562 2.835938 18.375 0.796875 C 19.695312 -1.304688 20.257812 -3.09375 20.0625 -4.5625 C 19.875 -6.039062 18.957031 -7.296875 17.3125 -8.328125 Z M 17.3125 -8.328125 "/></g></g></g><g fill="#293b7c" fill-opacity="1"><g transform="translate(48.222154, 55.305383)"><g><path d="M 16.6875 -13.1875 C 18.570312 -12.40625 20.046875 -11.335938 21.109375 -9.984375 L 19.65625 -7.828125 L 19.328125 -7.84375 C 18.941406 -8.550781 18.429688 -9.195312 17.796875 -9.78125 C 17.171875 -10.363281 16.425781 -10.832031 15.5625 -11.1875 C 13.875 -11.875 12.363281 -11.851562 11.03125 -11.125 C 9.707031 -10.40625 8.609375 -8.984375 7.734375 -6.859375 C 6.847656 -4.691406 6.613281 -2.859375 7.03125 -1.359375 C 7.457031 0.128906 8.515625 1.21875 10.203125 1.90625 C 11.015625 2.25 11.890625 2.445312 12.828125 2.5 C 13.773438 2.550781 14.675781 2.46875 15.53125 2.25 L 15.8125 2.5 L 14.609375 4.734375 C 12.722656 4.953125 10.925781 4.710938 9.21875 4.015625 C 6.71875 2.992188 5.101562 1.460938 4.375 -0.578125 C 3.644531 -2.617188 3.84375 -5.015625 4.96875 -7.765625 C 6.101562 -10.546875 7.691406 -12.40625 9.734375 -13.34375 C 11.785156 -14.289062 14.101562 -14.238281 16.6875 -13.1875 Z M 16.6875 -13.1875 "/></g></g></g><g fill="#293b7c" fill-opacity="1"><g transform="translate(65.543446, 62.297052)"><g><path d="M 11.25 -7.390625 C 13.050781 -3.691406 15.046875 -0.0976562 17.234375 3.390625 L 17.078125 3.765625 C 16.273438 3.828125 15.367188 3.800781 14.359375 3.6875 L 13.984375 3.421875 C 11.734375 -0.734375 9.832031 -4.507812 8.28125 -7.90625 L 8.328125 -8.125 L 16.078125 -13.40625 L 17.625 -14.703125 L 20.8125 -14 Z M 7.125 -4.234375 L 5.875 1.375 L 3.21875 0.75 L 4.578125 -4.59375 L 7.390625 -17.09375 L 10.09375 -16.453125 Z M 7.125 -4.234375 "/></g></g></g><g fill="#293b7c" fill-opacity="1"><g transform="translate(84.4697, 66.366886)"><g><path d="M 6.53125 -5.09375 L 6 0.625 L 3.296875 0.34375 L 3.984375 -5.125 L 5.21875 -17.890625 L 7.96875 -17.59375 Z M 6.53125 -5.09375 "/></g></g></g><g fill="#293b7c" fill-opacity="1"><g transform="translate(95.467865, 67.856995)"><g><path d="M 18.296875 -6.1875 L 18.53125 -0.703125 L 15.59375 -0.59375 L 5.4375 -14.203125 L 5.25 -14.1875 L 5.515625 -6.328125 L 5.8125 -0.21875 L 3.3125 -0.125 L 3.21875 -5.53125 L 2.640625 -18.4375 L 5.5625 -18.546875 L 15.71875 -4.953125 L 15.96875 -4.953125 L 15.390625 -18.8125 L 17.90625 -19.09375 Z M 18.296875 -6.1875 "/></g></g></g><g fill="#293b7c" fill-opacity="1"><g transform="translate(119.392635, 66.635449)"><g><path d="M 6.84375 -20.5625 C 8.707031 -20.988281 10.675781 -21.015625 12.75 -20.640625 L 12.453125 -17.84375 L 12.125 -17.765625 C 11.113281 -18.148438 10.207031 -18.367188 9.40625 -18.421875 C 8.601562 -18.484375 7.773438 -18.414062 6.921875 -18.21875 C 4.890625 -17.75 3.5 -16.816406 2.75 -15.421875 C 2 -14.035156 1.90625 -12.128906 2.46875 -9.703125 C 3 -7.347656 3.847656 -5.757812 5.015625 -4.9375 C 6.191406 -4.113281 7.796875 -3.9375 9.828125 -4.40625 C 10.421875 -4.539062 10.976562 -4.722656 11.5 -4.953125 C 12.03125 -5.179688 12.660156 -5.535156 13.390625 -6.015625 L 12.96875 -7.8125 L 12.359375 -10.34375 L 14.78125 -11.109375 L 16.265625 -4.65625 C 14.015625 -3.363281 12.003906 -2.519531 10.234375 -2.125 C 7.410156 -1.46875 5.097656 -1.734375 3.296875 -2.921875 C 1.503906 -4.117188 0.285156 -6.128906 -0.359375 -8.953125 C -1.054688 -12.015625 -0.773438 -14.546875 0.484375 -16.546875 C 1.753906 -18.546875 3.875 -19.882812 6.84375 -20.5625 Z M 6.84375 -20.5625 "/></g></g></g><g fill="#293b7c" fill-opacity="1"><g transform="translate(139.973936, 61.687707)"><g><path d="M 7.359375 -13.375 C 10.085938 -13.914062 11.90625 -13.101562 12.8125 -10.9375 C 13.476562 -9.3125 13.347656 -7.828125 12.421875 -6.484375 C 11.492188 -5.140625 9.804688 -3.957031 7.359375 -2.9375 C 5.878906 -2.320312 4.445312 -1.765625 3.0625 -1.265625 L 1.046875 -6.40625 L -3.96875 -18.1875 L 1.328125 -20.4375 C 3.015625 -21.144531 4.476562 -21.332031 5.71875 -21 C 6.957031 -20.675781 7.847656 -19.863281 8.390625 -18.5625 C 8.796875 -17.582031 8.898438 -16.648438 8.703125 -15.765625 C 8.515625 -14.890625 8.066406 -14.09375 7.359375 -13.375 Z M 5.84375 -17.140625 C 5.488281 -17.984375 4.957031 -18.484375 4.25 -18.640625 C 3.550781 -18.796875 2.601562 -18.628906 1.40625 -18.140625 L -0.671875 -17.265625 L 1.46875 -12.015625 L 4.53125 -13.171875 C 5.300781 -13.703125 5.796875 -14.285156 6.015625 -14.921875 C 6.242188 -15.554688 6.1875 -16.296875 5.84375 -17.140625 Z M 6.859375 -5 C 8.328125 -5.601562 9.347656 -6.320312 9.921875 -7.15625 C 10.492188 -7.988281 10.570312 -8.90625 10.15625 -9.90625 C 9.8125 -10.726562 9.269531 -11.253906 8.53125 -11.484375 C 7.800781 -11.710938 6.851562 -11.671875 5.6875 -11.359375 L 2.34375 -9.9375 L 3.265625 -7.578125 L 4.75 -4.234375 C 5.46875 -4.453125 6.171875 -4.707031 6.859375 -5 Z M 6.859375 -5 "/></g></g></g><g fill="#293b7c" fill-opacity="1"><g transform="translate(157.4015, 54.090021)"><g><path d="M 2.34375 -7.953125 L 5.25 -2.984375 L 2.875 -1.640625 L 0.234375 -6.484375 L -6.1875 -17.578125 L -3.78125 -18.9375 Z M 2.34375 -7.953125 "/></g></g></g><g fill="#293b7c" fill-opacity="1"><g transform="translate(166.965757, 48.86488)"><g><path d="M 4.96875 -12.96875 C 7.53125 -12.03125 10.203125 -11.226562 12.984375 -10.5625 L 13.171875 -10.234375 C 12.523438 -9.359375 11.957031 -8.707031 11.46875 -8.28125 L 10.90625 -8.21875 C 7.71875 -9.351562 5.253906 -10.285156 3.515625 -11.015625 L 0.78125 -8.90625 L 1.328125 -8.171875 L 4.828125 -3.625 L 2.65625 -1.984375 L -0.578125 -6.453125 L -8.34375 -16.65625 L -3.359375 -20.453125 C -1.804688 -21.609375 -0.34375 -22.132812 1.03125 -22.03125 C 2.414062 -21.925781 3.625 -21.1875 4.65625 -19.8125 C 5.40625 -18.8125 5.800781 -17.710938 5.84375 -16.515625 C 5.882812 -15.328125 5.59375 -14.144531 4.96875 -12.96875 Z M -0.578125 -10.75 L 2.265625 -12.734375 C 3.648438 -14.535156 3.722656 -16.265625 2.484375 -17.921875 C 1.835938 -18.785156 1.09375 -19.242188 0.25 -19.296875 C -0.582031 -19.347656 -1.53125 -19 -2.59375 -18.25 L -4.84375 -16.53125 Z M -0.578125 -10.75 "/></g></g></g><g fill="#293b7c" fill-opacity="1"><g transform="translate(183.079637, 36.714809)"><g><path d="M -6.375 -20.265625 C -4.457031 -22.316406 -2.445312 -23.375 -0.34375 -23.4375 C 1.757812 -23.5 3.832031 -22.578125 5.875 -20.671875 C 8.226562 -18.484375 9.484375 -16.210938 9.640625 -13.859375 C 9.796875 -11.503906 8.84375 -9.222656 6.78125 -7.015625 C 6.195312 -6.390625 5.484375 -5.648438 4.640625 -4.796875 C 3.804688 -3.953125 3.015625 -3.160156 2.265625 -2.421875 L -1.703125 -6.265625 L -11.140625 -14.921875 Z M 5.4375 -8.875 C 6.769531 -10.300781 7.367188 -11.804688 7.234375 -13.390625 C 7.097656 -14.984375 6.148438 -16.601562 4.390625 -18.25 C 2.660156 -19.863281 1.046875 -20.6875 -0.453125 -20.71875 C -1.960938 -20.75 -3.414062 -20.019531 -4.8125 -18.53125 C -5.632812 -17.65625 -6.566406 -16.585938 -7.609375 -15.328125 L -0.140625 -8.28125 L 2.421875 -5.953125 C 2.941406 -6.429688 3.484375 -6.941406 4.046875 -7.484375 C 4.617188 -8.023438 5.082031 -8.488281 5.4375 -8.875 Z M 5.4375 -8.875 "/></g></g></g></g></g><g transform="matrix(1, 0, 0, 1, 606, 418)"><g clip-path="url(#caf0585a8c)"><g fill="#293b7c" fill-opacity="1"><g transform="translate(29.982051, 186.896643)"><g><path d="M 0 -20.46875 L 0 -17.453125 L -2.359375 -16.890625 L -6.40625 -15.578125 L -6.515625 -10.265625 L -6.40625 -5.484375 L -2.5 -4.046875 L 0 -3.453125 L 0 -0.515625 L -23.59375 -9.171875 L -23.59375 -12.59375 Z M -8.90625 -14.765625 L -20.546875 -10.9375 L -20.546875 -10.671875 L -8.90625 -6.40625 L -8.828125 -10.53125 Z M -8.90625 -14.765625 "/></g></g></g><g fill="#293b7c" fill-opacity="1"><g transform="translate(29.982051, 165.618108)"><g><path d="M -18.375 -9.578125 C -18.375 -11.515625 -17.90625 -13.003906 -16.96875 -14.046875 C -16.039062 -15.085938 -14.691406 -15.609375 -12.921875 -15.609375 C -10.859375 -15.609375 -9.242188 -14.953125 -8.078125 -13.640625 C -6.910156 -12.328125 -6.328125 -10.515625 -6.328125 -8.203125 L -6.328125 -5.96875 L -5.75 -5.96875 L 0 -6.03125 L 0 -3.3125 L -5.515625 -3.421875 L -18.328125 -3.3125 Z M -8.46875 -9.09375 C -8.882812 -11.519531 -10.296875 -12.734375 -12.703125 -12.734375 C -13.859375 -12.734375 -14.71875 -12.40625 -15.28125 -11.75 C -15.84375 -11.101562 -16.148438 -10.128906 -16.203125 -8.828125 L -16.15625 -6.03125 L -8.546875 -6 Z M -8.46875 -9.09375 "/></g></g></g><g fill="#293b7c" fill-opacity="1"><g transform="translate(29.982051, 148.46248)"><g><path d="M -5.75 -5.96875 L 0 -6.03125 L 0 -3.3125 L -5.515625 -3.421875 L -18.328125 -3.3125 L -18.328125 -6.078125 Z M -5.75 -5.96875 "/></g></g></g><g fill="#293b7c" fill-opacity="1"><g transform="translate(29.982051, 138.927539)"><g/></g></g><g fill="#293b7c" fill-opacity="1"><g transform="translate(29.982051, 132.853372)"><g><path d="M 0 -22.828125 L 0 -20.359375 L -5.59375 -19.953125 L -14.0625 -18.953125 L -14.0625 -18.734375 L -2.0625 -13.46875 L -2.0625 -11.296875 L -14.0625 -6.328125 L -14.0625 -6.109375 L -5.8125 -5.15625 L 0 -4.640625 L 0 -2.28125 L -18.328125 -4.3125 L -18.328125 -7.515625 L -15.578125 -8.4375 L -5.703125 -12.4375 L -5.703125 -12.65625 L -15.71875 -16.859375 L -18.328125 -17.8125 L -18.328125 -20.953125 Z M 0 -22.828125 "/></g></g></g><g fill="#293b7c" fill-opacity="1"><g transform="translate(29.982051, 107.708682)"><g><path d="M -18.546875 -10.53125 C -18.546875 -13.207031 -17.757812 -15.257812 -16.1875 -16.6875 C -14.625 -18.125 -12.40625 -18.84375 -9.53125 -18.84375 C -6.414062 -18.84375 -4.003906 -18.078125 -2.296875 -16.546875 C -0.597656 -15.015625 0.25 -12.820312 0.25 -9.96875 C 0.25 -7.320312 -0.550781 -5.273438 -2.15625 -3.828125 C -3.757812 -2.378906 -6.046875 -1.65625 -9.015625 -1.65625 C -12.054688 -1.65625 -14.40625 -2.425781 -16.0625 -3.96875 C -17.71875 -5.519531 -18.546875 -7.707031 -18.546875 -10.53125 Z M -16.234375 -10.265625 C -16.234375 -8.328125 -15.679688 -6.882812 -14.578125 -5.9375 C -13.472656 -5 -11.726562 -4.53125 -9.34375 -4.53125 C -6.789062 -4.53125 -4.9375 -4.992188 -3.78125 -5.921875 C -2.632812 -6.859375 -2.0625 -8.285156 -2.0625 -10.203125 C -2.0625 -12.160156 -2.625 -13.617188 -3.75 -14.578125 C -4.882812 -15.535156 -6.65625 -16.015625 -9.0625 -16.015625 C -11.539062 -16.015625 -13.351562 -15.539062 -14.5 -14.59375 C -15.65625 -13.644531 -16.234375 -12.203125 -16.234375 -10.265625 Z M -16.234375 -10.265625 "/></g></g></g><g fill="#293b7c" fill-opacity="1"><g transform="translate(29.982051, 87.203381)"><g><path d="M -5.484375 -18.515625 L 0 -18.546875 L 0 -15.609375 L -13.984375 -5.96875 L -13.984375 -5.78125 L -6.109375 -5.75 L 0 -5.8125 L 0 -3.3125 L -5.40625 -3.421875 L -18.328125 -3.34375 L -18.328125 -6.265625 L -4.34375 -15.90625 L -4.34375 -16.15625 L -18.21875 -16.09375 L -18.40625 -18.625 Z M -5.484375 -18.515625 "/></g></g></g><g fill="#293b7c" fill-opacity="1"><g transform="translate(29.982051, 65.262126)"><g><path d="M -5.75 -5.96875 L 0 -6.03125 L 0 -3.3125 L -5.515625 -3.421875 L -18.328125 -3.3125 L -18.328125 -6.078125 Z M -5.75 -5.96875 "/></g></g></g><g fill="#293b7c" fill-opacity="1"><g transform="translate(29.982051, 55.727188)"><g><path d="M -18.109375 -14.90625 L -15.796875 -14.71875 L -16.046875 -11.296875 L -16.046875 -9.453125 L -5.75 -9.34375 L 0 -9.453125 L 0 -6.703125 L -5.515625 -6.8125 L -16.046875 -6.734375 L -16.046875 -4.890625 L -15.796875 -1.40625 L -16.046875 -1.171875 L -18.328125 -1.40625 L -18.328125 -14.765625 Z M -18.109375 -14.90625 "/></g></g></g><g fill="#293b7c" fill-opacity="1"><g transform="translate(29.982051, 39.639167)"><g><path d="M -18.546875 -10.53125 C -18.546875 -13.207031 -17.757812 -15.257812 -16.1875 -16.6875 C -14.625 -18.125 -12.40625 -18.84375 -9.53125 -18.84375 C -6.414062 -18.84375 -4.003906 -18.078125 -2.296875 -16.546875 C -0.597656 -15.015625 0.25 -12.820312 0.25 -9.96875 C 0.25 -7.320312 -0.550781 -5.273438 -2.15625 -3.828125 C -3.757812 -2.378906 -6.046875 -1.65625 -9.015625 -1.65625 C -12.054688 -1.65625 -14.40625 -2.425781 -16.0625 -3.96875 C -17.71875 -5.519531 -18.546875 -7.707031 -18.546875 -10.53125 Z M -16.234375 -10.265625 C -16.234375 -8.328125 -15.679688 -6.882812 -14.578125 -5.9375 C -13.472656 -5 -11.726562 -4.53125 -9.34375 -4.53125 C -6.789062 -4.53125 -4.9375 -4.992188 -3.78125 -5.921875 C -2.632812 -6.859375 -2.0625 -8.285156 -2.0625 -10.203125 C -2.0625 -12.160156 -2.625 -13.617188 -3.75 -14.578125 C -4.882812 -15.535156 -6.65625 -16.015625 -9.0625 -16.015625 C -11.539062 -16.015625 -13.351562 -15.539062 -14.5 -14.59375 C -15.65625 -13.644531 -16.234375 -12.203125 -16.234375 -10.265625 Z M -16.234375 -10.265625 "/></g></g></g><g fill="#293b7c" fill-opacity="1"><g transform="translate(29.982051, 19.133894)"><g><path d="M -7.40625 -11.75 C -5.113281 -13.238281 -2.863281 -14.894531 -0.65625 -16.71875 L -0.296875 -16.671875 C 0.0234375 -15.640625 0.207031 -14.796875 0.25 -14.140625 L -0.03125 -13.65625 C -2.851562 -11.789062 -5.078125 -10.378906 -6.703125 -9.421875 L -6.65625 -5.96875 L -5.75 -5.96875 L 0 -6.03125 L 0 -3.3125 L -5.515625 -3.421875 L -18.328125 -3.3125 L -18.375 -9.578125 C -18.375 -11.515625 -17.914062 -13.003906 -17 -14.046875 C -16.09375 -15.085938 -14.78125 -15.609375 -13.0625 -15.609375 C -11.8125 -15.609375 -10.695312 -15.269531 -9.71875 -14.59375 C -8.738281 -13.914062 -7.96875 -12.96875 -7.40625 -11.75 Z M -8.953125 -6 L -8.828125 -9.453125 C -9.441406 -11.640625 -10.78125 -12.734375 -12.84375 -12.734375 C -13.925781 -12.734375 -14.738281 -12.414062 -15.28125 -11.78125 C -15.820312 -11.144531 -16.113281 -10.175781 -16.15625 -8.875 L -16.125 -6.03125 Z M -8.953125 -6 "/></g></g></g></g></g><g clip-path="url(#36c6f393dd)"><g clip-path="url(#9c29bf7140)"><g clip-path="url(#0f9436be45)"><path fill="#ffffff" d="M 375.300781 625.789062 C 374.738281 636.070312 371.050781 640.980469 364.046875 639.859375 C 364.472656 638.523438 364.785156 637.167969 364.984375 635.78125 C 364.992188 634.078125 364.886719 632.382812 364.667969 630.691406 L 332.730469 643.867188 C 331.304688 650.5625 332.101562 657.917969 324.25 662.605469 L 322.261719 648.667969 L 264.769531 672.722656 C 263.425781 673.347656 262.03125 673.828125 260.589844 674.167969 C 256.570312 674.921875 255.59375 674.355469 253.507812 670.527344 C 251.6875 667.195312 251.585938 665.863281 254.570312 663.25 C 257.253906 660.96875 260.1875 659.066406 263.367188 657.542969 C 270.320312 654.09375 277.472656 651 284.460938 647.648438 C 287.617188 646.171875 290.488281 644.269531 293.074219 641.9375 C 295.660156 639.605469 297.851562 636.945312 299.644531 633.960938 C 292.871094 626.1875 286.335938 618.632812 279.742188 611.09375 C 279.15625 610.40625 278.375 609.441406 277.664062 609.386719 C 271.335938 608.894531 264.789062 605.882812 258.734375 609.90625 C 250.863281 615.128906 242.582031 620.003906 235.679688 626.335938 C 230.144531 631.40625 226.3125 638.378906 221.847656 644.601562 C 212.054688 658.257812 202.359375 671.992188 192.5625 685.625 C 191.316406 687.269531 189.855469 688.691406 188.171875 689.886719 C 184.523438 692.675781 183.316406 692.460938 179.546875 689.246094 C 177.242188 690.335938 174.925781 691.402344 172.625 692.5 C 170.078125 693.722656 167.34375 694.113281 165.410156 691.894531 C 163.472656 689.679688 164.957031 687.144531 166.117188 685.097656 C 168.128906 681.519531 170.34375 678.066406 172.757812 674.746094 C 181.769531 662.355469 190.917969 650.0625 199.953125 637.679688 C 206.882812 628.171875 213.726562 618.605469 220.269531 608.472656 L 210.0625 613.894531 C 206.949219 615.539062 203.835938 617.175781 200.722656 618.804688 C 198.949219 619.726562 197.203125 620.121094 195.203125 617.609375 C 196.191406 615.207031 197.375 612.910156 198.753906 610.710938 C 204.433594 602.84375 210.570312 595.269531 216.160156 587.324219 C 225.976562 573.257812 235.644531 559.109375 245.308594 544.859375 C 256.46875 528.535156 267.539062 512.058594 280.839844 497.335938 C 288.445312 488.910156 296.652344 481.042969 304.296875 472.65625 C 307.019531 469.59375 309.242188 466.207031 310.972656 462.492188 C 314.746094 454.347656 319.382812 446.734375 324.886719 439.648438 C 334.910156 427.113281 355.246094 421.203125 370.648438 430.285156 C 374.078125 432.53125 377.109375 435.234375 379.734375 438.382812 C 381.550781 440.390625 383.023438 441.746094 386 442.023438 C 390.601562 442.503906 395.007812 444.015625 399.464844 445.226562 C 401.117188 445.855469 402.710938 446.609375 404.25 447.480469 C 401.546875 449.179688 399.644531 450.472656 397.640625 451.605469 C 396.039062 452.527344 394.3125 453.214844 392.667969 454.074219 C 387.234375 456.75 384.816406 461.242188 384.96875 467.160156 C 385.703125 497.300781 389.378906 521.988281 373.898438 549.75 C 363.777344 568.449219 350.574219 584.257812 331.132812 595.503906 C 333.890625 597.589844 336.101562 599.453125 338.488281 601.074219 C 345.429688 605.75 352.308594 610.582031 360.289062 613.480469 C 361.664062 614.03125 363.089844 614.292969 364.570312 614.265625 C 366.050781 614.238281 367.46875 613.929688 368.824219 613.328125 C 378.949219 609.246094 389.246094 605.558594 399.53125 601.929688 C 401.867188 601.191406 404.257812 600.851562 406.707031 600.90625 C 407.320312 600.894531 407.925781 600.984375 408.511719 601.171875 C 409.097656 601.355469 409.640625 601.632812 410.136719 602 C 410.632812 602.363281 411.058594 602.800781 411.414062 603.304688 C 411.765625 603.8125 412.027344 604.359375 412.199219 604.953125 C 412.902344 607.265625 411.230469 608.820312 409.378906 609.886719 C 398.414062 616.277344 387.195312 620.4375 375.300781 625.789062 Z M 291.449219 608.953125 C 293.722656 611.722656 295.785156 614.566406 298.191406 617.058594 C 301.570312 620.761719 305.179688 624.222656 309.019531 627.445312 C 313.074219 630.6875 318.058594 632.449219 323.121094 630.503906 C 330.640625 627.609375 338 624.054688 345.382812 620.679688 C 346.125 620.335938 346.542969 619.269531 347.007812 618.660156 C 340.476562 614.160156 334.023438 610.308594 328.332031 605.601562 C 324.144531 602.128906 320.796875 600.429688 315.128906 602.644531 C 307.625 605.570312 299.503906 606.875 291.449219 608.953125 Z M 291.449219 608.953125 " fill-opacity="1" fill-rule="nonzero"/></g></g></g></svg>