<svg xmlns="http://www.w3.org/2000/svg" xmlns:xlink="http://www.w3.org/1999/xlink" width="1080" zoomAndPan="magnify" viewBox="0 0 810 1012.49997" height="1350" preserveAspectRatio="xMidYMid meet" version="1.0"><defs><g/><clipPath id="d964be3fce"><path d="M 470 274 L 759 274 L 759 431 L 470 431 Z M 470 274 " clip-rule="nonzero"/></clipPath><clipPath id="15dafaa71d"><path d="M 496.921875 236.800781 L 761.476562 277.175781 L 732.296875 468.367188 L 467.742188 427.992188 Z M 496.921875 236.800781 " clip-rule="nonzero"/></clipPath><clipPath id="edb3fb64ce"><path d="M 496.921875 236.800781 L 761.476562 277.175781 L 732.296875 468.367188 L 467.742188 427.992188 Z M 496.921875 236.800781 " clip-rule="nonzero"/></clipPath><clipPath id="34f948db42"><path d="M 590 235 L 673 235 L 673 317 L 590 317 Z M 590 235 " clip-rule="nonzero"/></clipPath><clipPath id="892c1073f2"><path d="M 585.496094 237.984375 L 691.410156 227.339844 L 700.929688 322.066406 L 595.015625 332.710938 Z M 585.496094 237.984375 " clip-rule="nonzero"/></clipPath><clipPath id="b5f2d4dfb9"><path d="M 585.496094 237.984375 L 691.410156 227.339844 L 700.929688 322.066406 L 595.015625 332.710938 Z M 585.496094 237.984375 " clip-rule="nonzero"/></clipPath><clipPath id="71a5194746"><path d="M 589 233 L 674 233 L 674 318 L 589 318 Z M 589 233 " clip-rule="nonzero"/></clipPath><clipPath id="0e23f6a83f"><path d="M 585.496094 237.984375 L 691.410156 227.339844 L 700.929688 322.066406 L 595.015625 332.710938 Z M 585.496094 237.984375 " clip-rule="nonzero"/></clipPath><clipPath id="0afc6d0784"><path d="M 585.496094 237.984375 L 691.410156 227.339844 L 700.929688 322.066406 L 595.015625 332.710938 Z M 585.496094 237.984375 " clip-rule="nonzero"/></clipPath><clipPath id="80c97bcc25"><path d="M 651 276 L 698 276 L 698 324 L 651 324 Z M 651 276 " clip-rule="nonzero"/></clipPath><clipPath id="0d655cac31"><path d="M 585.496094 237.984375 L 691.410156 227.339844 L 700.929688 322.066406 L 595.015625 332.710938 Z M 585.496094 237.984375 " clip-rule="nonzero"/></clipPath><clipPath id="2e6db36b9c"><path d="M 585.496094 237.984375 L 691.410156 227.339844 L 700.929688 322.066406 L 595.015625 332.710938 Z M 585.496094 237.984375 " clip-rule="nonzero"/></clipPath><clipPath id="b650393c14"><path d="M 649 275 L 699 275 L 699 325 L 649 325 Z M 649 275 " clip-rule="nonzero"/></clipPath><clipPath id="7378380249"><path d="M 585.496094 237.984375 L 691.410156 227.339844 L 700.929688 322.066406 L 595.015625 332.710938 Z M 585.496094 237.984375 " clip-rule="nonzero"/></clipPath><clipPath id="ee718c8408"><path d="M 585.496094 237.984375 L 691.410156 227.339844 L 700.929688 322.066406 L 595.015625 332.710938 Z M 585.496094 237.984375 " clip-rule="nonzero"/></clipPath><clipPath id="97929092ca"><path d="M 100 363 L 489 363 L 489 783 L 100 783 Z M 100 363 " clip-rule="nonzero"/></clipPath><clipPath id="2e02946a5f"><path d="M 48.613281 412.652344 L 469.40625 352.710938 L 522.371094 724.519531 L 101.578125 784.460938 Z M 48.613281 412.652344 " clip-rule="nonzero"/></clipPath><clipPath id="78fd851932"><path d="M 48.613281 412.652344 L 469.40625 352.710938 L 522.371094 724.519531 L 101.578125 784.460938 Z M 48.613281 412.652344 " clip-rule="nonzero"/></clipPath><clipPath id="7b60229b18"><rect x="0" width="318" y="0" height="118"/></clipPath><clipPath id="0c66d8a5aa"><rect x="0" width="315" y="0" height="245"/></clipPath></defs><g clip-path="url(#d964be3fce)"><g clip-path="url(#15dafaa71d)"><g clip-path="url(#edb3fb64ce)"><path fill="#ffffff" d="M 743.71875 274.605469 C 734.007812 273.121094 724.867188 279.839844 723.382812 289.554688 C 722.636719 294.453125 724.003906 299.222656 726.722656 302.917969 L 654.75 385.578125 C 652.988281 384.578125 650.992188 383.910156 648.855469 383.582031 C 642.351562 382.589844 636.105469 385.285156 632.273438 390.078125 L 590.835938 369.441406 C 591.003906 368.917969 591.085938 368.386719 591.183594 367.761719 C 592.664062 358.046875 585.945312 348.90625 576.230469 347.425781 C 566.519531 345.945312 557.378906 352.664062 555.898438 362.375 C 555.476562 365.136719 555.703125 367.816406 556.507812 370.3125 L 501.359375 401.285156 C 498.726562 398.238281 495.035156 396.125 490.757812 395.472656 C 481.046875 393.988281 471.90625 400.710938 470.421875 410.421875 C 468.941406 420.132812 475.660156 429.273438 485.375 430.757812 C 495.085938 432.238281 504.226562 425.519531 505.707031 415.808594 C 506.128906 413.046875 505.902344 410.367188 505.097656 407.871094 L 560.246094 376.898438 C 562.878906 379.945312 566.570312 382.058594 570.847656 382.710938 C 577.351562 383.703125 583.597656 381.011719 587.429688 376.214844 L 628.867188 396.855469 C 628.695312 397.375 628.613281 397.910156 628.519531 398.535156 C 627.039062 408.246094 633.757812 417.386719 643.46875 418.867188 C 653.183594 420.351562 662.324219 413.632812 663.804688 403.917969 C 664.554688 399.019531 663.183594 394.25 660.464844 390.550781 L 732.4375 307.894531 C 734.199219 308.894531 736.195312 309.5625 738.335938 309.890625 C 748.046875 311.371094 757.1875 304.652344 758.667969 294.9375 C 760.164062 285.136719 753.429688 276.085938 743.71875 274.605469 Z M 743.71875 274.605469 " fill-opacity="1" fill-rule="nonzero"/></g></g></g><g clip-path="url(#34f948db42)"><g clip-path="url(#892c1073f2)"><g clip-path="url(#b5f2d4dfb9)"><path fill="#ffffff" d="M 630.882812 296.820312 C 619.28125 296.460938 610.164062 286.765625 610.523438 275.164062 C 610.882812 263.5625 620.574219 254.445312 632.179688 254.804688 C 643.78125 255.160156 652.894531 264.855469 652.535156 276.460938 C 652.179688 288.058594 642.484375 297.175781 630.882812 296.820312 Z M 672.214844 277.117188 L 671.917969 270.761719 C 671.828125 268.730469 670.097656 267.15625 668.0625 267.253906 L 664.152344 267.429688 C 663.324219 264.199219 662.027344 261.148438 660.332031 258.359375 L 663.207031 255.683594 C 664.699219 254.292969 664.78125 251.960938 663.394531 250.46875 L 659.0625 245.820312 C 657.671875 244.328125 655.339844 244.246094 653.847656 245.636719 L 650.972656 248.316406 C 647.546875 245.886719 643.640625 244.082031 639.417969 243.070312 L 639.539062 239.152344 C 639.601562 237.113281 638.003906 235.414062 635.964844 235.351562 L 629.613281 235.152344 C 627.578125 235.089844 625.875 236.6875 625.816406 238.726562 L 625.691406 242.640625 C 620.769531 243.503906 616.203125 245.4375 612.253906 248.199219 L 609.402344 245.507812 C 607.921875 244.113281 605.585938 244.183594 604.1875 245.667969 L 599.832031 250.289062 C 598.433594 251.773438 598.5 254.109375 599.984375 255.503906 L 602.832031 258.1875 C 600.566406 261.867188 598.988281 266.03125 598.277344 270.488281 L 594.359375 270.671875 C 592.324219 270.761719 590.75 272.488281 590.847656 274.523438 L 591.140625 280.871094 C 591.234375 282.90625 592.964844 284.476562 594.996094 284.386719 L 598.914062 284.203125 C 599.742188 287.433594 601.039062 290.480469 602.730469 293.265625 L 599.867188 295.933594 C 598.378906 297.320312 598.296875 299.660156 599.683594 301.148438 L 604.011719 305.796875 C 605.40625 307.289062 607.742188 307.367188 609.230469 305.984375 L 612.097656 303.308594 C 615.523438 305.738281 619.433594 307.546875 623.660156 308.558594 L 623.535156 312.472656 C 623.476562 314.511719 625.078125 316.210938 627.113281 316.273438 L 633.464844 316.472656 C 635.5 316.535156 637.203125 314.933594 637.261719 312.898438 L 637.382812 308.980469 C 642.300781 308.117188 646.867188 306.179688 650.816406 303.417969 L 653.675781 306.113281 C 655.160156 307.507812 657.492188 307.441406 658.886719 305.957031 L 663.246094 301.332031 C 664.648438 299.847656 664.574219 297.515625 663.09375 296.121094 L 660.238281 293.425781 C 662.496094 289.75 664.074219 285.601562 664.777344 281.152344 L 668.699219 280.96875 C 670.734375 280.875 672.308594 279.148438 672.214844 277.117188 " fill-opacity="1" fill-rule="nonzero"/></g></g></g><g clip-path="url(#71a5194746)"><g clip-path="url(#0e23f6a83f)"><g clip-path="url(#0afc6d0784)"><path stroke-linecap="round" transform="matrix(0.0451305, -0.00453535, -0.00453535, -0.0451305, 556.394274, 385.228906)" fill="none" stroke-linejoin="round" d="M 1828.905326 1775.158518 C 1575.20099 1808.617276 1396.575756 2041.396193 1430.034514 2295.100529 C 1463.493272 2548.804865 1696.1865 2727.43871 1949.976525 2693.971341 C 2203.689472 2660.598272 2382.229017 2427.827966 2348.761648 2174.037941 C 2315.39719 1920.410683 2082.618273 1741.785449 1828.905326 1775.158518 Z M 2779.016549 2116.258783 L 2786.514655 2256.329371 C 2789.021648 2301.085751 2754.531712 2339.433227 2709.67242 2341.777452 L 2623.510145 2346.541288 C 2612.46555 2419.231739 2590.742148 2489.013841 2559.701507 2553.93312 L 2628.667366 2606.292272 C 2664.466193 2633.508094 2671.40657 2684.483639 2644.276438 2720.273856 L 2559.494615 2831.793719 C 2532.278793 2867.592547 2481.303248 2874.532924 2445.50442 2847.317103 L 2376.529951 2794.872261 C 2306.736814 2855.722921 2225.026123 2903.922509 2134.626536 2935.424724 L 2145.919964 3021.103924 C 2151.786053 3065.695844 2120.485106 3106.492589 2075.893186 3112.358678 L 1937.001913 3130.730686 C 1892.495682 3136.588164 1851.613248 3105.295827 1845.832848 3060.695296 L 1834.462342 2975.110396 C 1724.591018 2967.023263 1620.157922 2934.6737 1527.43812 2882.797477 L 1470.81823 2948.123454 C 1441.416279 2981.978113 1390.019207 2985.585227 1356.070247 2956.106198 L 1250.339833 2864.33754 C 1216.390874 2834.858511 1212.698071 2783.47005 1242.185711 2749.606779 L 1298.737134 2684.460792 C 1240.925685 2608.736193 1197.127722 2520.870571 1171.706892 2424.666575 L 1085.356016 2429.276255 C 1040.513947 2431.791858 1002.175082 2397.387612 999.830857 2352.52832 L 992.264284 2212.637721 C 989.834369 2167.78704 1024.332917 2129.525254 1069.089297 2127.018261 L 1155.440173 2122.408581 C 1166.484768 2049.71813 1188.216781 1980.021718 1219.180344 1915.196739 L 1150.488775 1862.983131 C 1114.784248 1835.844387 1107.826648 1784.697464 1134.965392 1748.992936 L 1219.661526 1637.481684 C 1246.963037 1601.674245 1298.032882 1594.810946 1333.728799 1621.864 L 1402.523279 1674.240375 C 1472.316415 1613.389716 1554.104184 1565.095827 1644.58946 1533.585001 L 1633.218954 1448.000101 C 1627.438554 1403.39957 1658.82519 1362.594214 1703.331422 1356.736736 L 1842.222694 1338.364728 C 1886.728925 1332.50725 1927.61997 1363.885276 1933.391759 1408.400118 L 1944.685187 1494.079318 C 2054.470822 1502.175062 2158.912529 1534.610314 2251.632332 1586.486538 L 2308.414988 1521.057649 C 2337.902628 1487.194379 2389.205401 1483.510187 2423.068671 1512.997828 L 2528.893385 1604.843563 C 2562.928034 1634.313981 2566.440847 1685.633975 2537.038896 1719.488635 L 2480.341929 1784.908912 C 2537.973388 1860.565044 2581.736906 1948.087909 2606.969136 2044.13775 L 2693.405701 2039.519459 C 2738.256381 2037.089544 2776.595246 2071.493791 2779.016549 2116.258783 Z M 2779.016549 2116.258783 " stroke="#231f1f" stroke-width="52.472" stroke-opacity="1" stroke-miterlimit="10"/></g></g></g><g clip-path="url(#80c97bcc25)"><g clip-path="url(#0d655cac31)"><g clip-path="url(#2e6db36b9c)"><path fill="#ffffff" d="M 673.28125 290.03125 C 668.226562 290.539062 664.292969 294.765625 664.132812 299.855469 C 664.050781 302.574219 665.03125 305.160156 666.894531 307.144531 C 668.757812 309.128906 671.28125 310.261719 674 310.347656 C 674.453125 310.359375 674.902344 310.347656 675.347656 310.300781 C 680.402344 309.792969 684.335938 305.570312 684.496094 300.484375 C 684.578125 297.761719 683.597656 295.175781 681.734375 293.191406 C 679.871094 291.210938 677.347656 290.070312 674.628906 289.988281 C 674.179688 289.972656 673.726562 289.988281 673.28125 290.03125 Z M 675.742188 323.351562 C 675.601562 323.363281 675.46875 323.367188 675.320312 323.359375 L 671.886719 323.253906 C 670.128906 323.203125 668.746094 321.726562 668.800781 319.976562 L 668.835938 318.796875 C 667.097656 318.289062 665.449219 317.542969 663.914062 316.566406 L 663.058594 317.367188 C 662.542969 317.847656 661.902344 318.136719 661.203125 318.207031 C 660.207031 318.304688 659.234375 317.941406 658.550781 317.210938 L 656.207031 314.691406 C 655.011719 313.40625 655.085938 311.386719 656.367188 310.191406 L 657.226562 309.386719 C 656.632812 308.285156 656.148438 307.132812 655.773438 305.941406 L 654.597656 305.996094 C 653.746094 306.035156 652.929688 305.742188 652.304688 305.167969 C 651.675781 304.59375 651.304688 303.808594 651.265625 302.960938 L 651.109375 299.527344 C 651.027344 297.835938 652.285156 296.378906 653.96875 296.207031 C 654.027344 296.203125 654.082031 296.195312 654.140625 296.195312 L 655.316406 296.140625 C 655.710938 294.28125 656.367188 292.511719 657.277344 290.847656 L 656.421875 290.042969 C 655.804688 289.460938 655.449219 288.667969 655.425781 287.820312 C 655.402344 286.96875 655.707031 286.160156 656.292969 285.539062 L 658.648438 283.039062 C 659.175781 282.476562 659.886719 282.128906 660.652344 282.050781 C 661.570312 281.960938 662.480469 282.269531 663.152344 282.902344 L 664.011719 283.710938 C 665.863281 282.550781 667.871094 281.71875 669.992188 281.234375 L 670.03125 280.0625 C 670.078125 278.46875 671.308594 277.148438 672.898438 276.988281 C 673.035156 276.972656 673.175781 276.96875 673.316406 276.972656 L 676.75 277.078125 C 678.507812 277.136719 679.890625 278.609375 679.839844 280.359375 L 679.800781 281.539062 C 681.539062 282.050781 683.183594 282.800781 684.71875 283.773438 L 685.585938 282.964844 C 686.097656 282.484375 686.738281 282.199219 687.433594 282.128906 C 688.433594 282.027344 689.402344 282.390625 690.085938 283.125 L 692.429688 285.640625 C 693.628906 286.925781 693.558594 288.949219 692.273438 290.144531 L 691.40625 290.949219 C 692 292.054688 692.484375 293.207031 692.855469 294.402344 L 694.03125 294.347656 C 695.785156 294.265625 697.28125 295.628906 697.363281 297.382812 L 697.519531 300.816406 C 697.601562 302.507812 696.34375 303.964844 694.660156 304.136719 C 694.601562 304.140625 694.546875 304.148438 694.488281 304.148438 L 693.308594 304.203125 C 692.917969 306.050781 692.261719 307.824219 691.351562 309.480469 L 692.214844 310.292969 C 693.492188 311.496094 693.550781 313.519531 692.347656 314.796875 L 689.988281 317.300781 C 689.460938 317.859375 688.753906 318.207031 687.988281 318.285156 C 687.070312 318.378906 686.15625 318.070312 685.484375 317.433594 L 684.621094 316.621094 C 682.773438 317.785156 680.769531 318.613281 678.644531 319.097656 L 678.605469 320.277344 C 678.558594 321.867188 677.328125 323.191406 675.742188 323.351562 " fill-opacity="1" fill-rule="nonzero"/></g></g></g><g clip-path="url(#b650393c14)"><g clip-path="url(#7378380249)"><g clip-path="url(#ee718c8408)"><path fill="#ffffff" d="M 675.230469 309.113281 C 674.835938 309.15625 674.433594 309.171875 674.039062 309.15625 C 671.636719 309.082031 669.402344 308.082031 667.761719 306.328125 C 666.117188 304.578125 665.25 302.289062 665.324219 299.890625 C 665.460938 295.394531 668.933594 291.667969 673.398438 291.21875 C 673.796875 291.179688 674.195312 291.167969 674.59375 291.175781 C 676.992188 291.25 679.222656 292.257812 680.867188 294.007812 C 682.515625 295.753906 683.378906 298.042969 683.304688 300.445312 C 683.164062 304.9375 679.691406 308.667969 675.230469 309.113281 Z M 672.773438 275.804688 C 670.601562 276.023438 668.910156 277.839844 668.839844 280.027344 L 668.832031 280.300781 C 667.203125 280.746094 665.644531 281.390625 664.171875 282.226562 L 663.96875 282.039062 C 663.046875 281.167969 661.792969 280.742188 660.53125 280.863281 C 659.480469 280.96875 658.507812 281.453125 657.785156 282.222656 L 655.425781 284.71875 C 654.625 285.570312 654.203125 286.683594 654.238281 287.851562 C 654.269531 289.019531 654.757812 290.105469 655.605469 290.90625 L 655.808594 291.09375 C 655.195312 292.347656 654.710938 293.648438 654.363281 294.996094 L 654.085938 295.007812 C 654.007812 295.007812 653.925781 295.019531 653.851562 295.027344 C 651.539062 295.257812 649.808594 297.257812 649.917969 299.582031 L 650.078125 303.015625 C 650.128906 304.183594 650.636719 305.257812 651.503906 306.046875 C 652.363281 306.835938 653.484375 307.238281 654.652344 307.183594 L 654.933594 307.175781 C 655.175781 307.839844 655.449219 308.492188 655.761719 309.128906 L 655.554688 309.320312 C 653.792969 310.964844 653.695312 313.734375 655.335938 315.503906 L 657.679688 318.015625 C 658.625 319.03125 659.949219 319.527344 661.324219 319.386719 C 662.285156 319.292969 663.160156 318.894531 663.871094 318.238281 L 664.070312 318.050781 C 665.203125 318.699219 666.386719 319.234375 667.617188 319.65625 L 667.609375 319.9375 C 667.539062 322.351562 669.4375 324.371094 671.847656 324.449219 L 675.285156 324.550781 C 675.476562 324.558594 675.671875 324.550781 675.863281 324.53125 C 678.039062 324.3125 679.730469 322.5 679.796875 320.3125 L 679.804688 320.035156 C 681.433594 319.585938 682.992188 318.941406 684.460938 318.105469 L 684.667969 318.300781 C 685.59375 319.167969 686.84375 319.59375 688.109375 319.46875 C 689.15625 319.363281 690.132812 318.882812 690.851562 318.117188 L 693.214844 315.613281 C 694.867188 313.855469 694.789062 311.082031 693.03125 309.425781 L 692.824219 309.234375 C 693.433594 307.988281 693.914062 306.691406 694.261719 305.351562 L 694.542969 305.335938 C 694.621094 305.332031 694.699219 305.324219 694.777344 305.316406 C 697.089844 305.085938 698.820312 303.082031 698.710938 300.765625 L 698.550781 297.324219 C 698.441406 294.917969 696.390625 293.046875 693.980469 293.15625 L 693.699219 293.167969 C 693.457031 292.503906 693.183594 291.847656 692.871094 291.207031 L 693.082031 291.015625 C 694.847656 289.371094 694.949219 286.597656 693.300781 284.828125 L 690.957031 282.316406 C 690.015625 281.300781 688.691406 280.800781 687.3125 280.941406 C 686.355469 281.035156 685.476562 281.441406 684.773438 282.097656 L 684.5625 282.289062 C 683.4375 281.640625 682.25 281.101562 681.019531 280.679688 L 681.027344 280.402344 C 681.101562 277.988281 679.199219 275.964844 676.789062 275.890625 L 673.351562 275.785156 C 673.160156 275.777344 672.964844 275.785156 672.773438 275.804688 Z M 675.46875 311.484375 C 681.058594 310.921875 685.503906 306.289062 685.683594 300.519531 C 685.878906 294.242188 680.941406 288.992188 674.664062 288.800781 C 674.15625 288.78125 673.65625 288.800781 673.160156 288.851562 C 667.570312 289.410156 663.125 294.046875 662.945312 299.816406 C 662.75 306.097656 667.683594 311.34375 673.964844 311.535156 C 674.472656 311.550781 674.972656 311.535156 675.46875 311.484375 M 673.011719 278.171875 C 673.097656 278.160156 673.1875 278.15625 673.277344 278.160156 L 676.714844 278.269531 C 677.816406 278.304688 678.683594 279.222656 678.648438 280.324219 L 678.585938 282.445312 C 680.871094 282.996094 682.980469 283.972656 684.835938 285.289062 L 686.390625 283.835938 C 686.726562 283.53125 687.136719 283.351562 687.550781 283.308594 C 688.152344 283.25 688.769531 283.460938 689.214844 283.9375 L 691.558594 286.449219 C 692.3125 287.257812 692.269531 288.519531 691.460938 289.273438 L 689.902344 290.722656 C 690.820312 292.234375 691.523438 293.882812 691.972656 295.632812 L 694.085938 295.535156 C 695.1875 295.484375 696.121094 296.335938 696.175781 297.4375 L 696.332031 300.871094 C 696.382812 301.9375 695.585938 302.84375 694.539062 302.949219 L 694.429688 302.960938 L 692.3125 303.058594 C 691.925781 305.46875 691.074219 307.710938 689.847656 309.703125 L 691.398438 311.160156 C 692.199219 311.914062 692.238281 313.175781 691.480469 313.980469 L 689.121094 316.484375 C 688.78125 316.847656 688.332031 317.050781 687.871094 317.097656 C 687.316406 317.15625 686.738281 316.980469 686.296875 316.566406 L 684.753906 315.109375 C 682.613281 316.605469 680.144531 317.652344 677.484375 318.121094 L 677.417969 320.242188 C 677.386719 321.25 676.601562 322.066406 675.625 322.164062 C 675.539062 322.171875 675.449219 322.175781 675.359375 322.175781 L 671.921875 322.066406 C 670.820312 322.035156 669.957031 321.113281 669.988281 320.011719 L 670.058594 317.890625 C 667.769531 317.34375 665.652344 316.367188 663.796875 315.050781 L 662.246094 316.496094 C 661.910156 316.804688 661.503906 316.980469 661.085938 317.023438 C 660.484375 317.082031 659.867188 316.871094 659.421875 316.398438 L 657.078125 313.878906 C 656.324219 313.074219 656.371094 311.8125 657.179688 311.054688 L 658.726562 309.617188 C 657.8125 308.105469 657.109375 306.460938 656.660156 304.710938 L 654.542969 304.808594 C 653.441406 304.859375 652.507812 304.007812 652.453125 302.90625 L 652.296875 299.472656 C 652.25 298.40625 653.042969 297.496094 654.089844 297.390625 C 654.125 297.386719 654.160156 297.386719 654.199219 297.382812 L 656.316406 297.285156 C 656.699219 294.875 657.554688 292.625 658.785156 290.628906 L 657.238281 289.179688 C 656.4375 288.417969 656.402344 287.15625 657.160156 286.355469 L 659.515625 283.851562 C 659.859375 283.484375 660.304688 283.28125 660.769531 283.234375 C 661.328125 283.179688 661.898438 283.351562 662.339844 283.769531 L 663.882812 285.222656 C 666.023438 283.726562 668.492188 282.683594 671.152344 282.214844 L 671.222656 280.097656 C 671.253906 279.085938 672.035156 278.269531 673.011719 278.171875 " fill-opacity="1" fill-rule="nonzero"/></g></g></g><g clip-path="url(#97929092ca)"><g clip-path="url(#2e02946a5f)"><g clip-path="url(#78fd851932)"><path fill="#ffffff" d="M 430.714844 676.773438 C 429.832031 692.875 424.058594 700.566406 413.089844 698.808594 C 413.753906 696.71875 414.242188 694.589844 414.558594 692.421875 C 414.570312 689.753906 414.402344 687.097656 414.0625 684.453125 L 364.039062 705.085938 C 361.804688 715.574219 363.054688 727.089844 350.753906 734.433594 L 347.644531 712.605469 L 257.597656 750.277344 C 255.492188 751.257812 253.3125 752.011719 251.050781 752.542969 C 244.757812 753.722656 243.230469 752.839844 239.964844 746.84375 C 237.109375 741.625 236.953125 739.535156 241.625 735.445312 C 245.832031 731.875 250.425781 728.894531 255.402344 726.507812 C 266.292969 721.105469 277.492188 716.261719 288.441406 711.007812 C 293.382812 708.699219 297.878906 705.714844 301.929688 702.0625 C 305.980469 698.410156 309.414062 694.246094 312.222656 689.570312 C 301.613281 677.398438 291.375 665.5625 281.050781 653.757812 C 280.132812 652.683594 278.90625 651.171875 277.792969 651.082031 C 267.886719 650.308594 257.628906 645.59375 248.144531 651.898438 C 235.820312 660.078125 222.851562 667.710938 212.035156 677.628906 C 203.371094 685.574219 197.367188 696.492188 190.375 706.238281 C 175.035156 727.625 159.855469 749.132812 144.507812 770.488281 C 142.558594 773.066406 140.265625 775.289062 137.632812 777.164062 C 131.917969 781.527344 130.027344 781.195312 124.125 776.160156 C 120.515625 777.863281 116.886719 779.535156 113.28125 781.253906 C 109.292969 783.171875 105.015625 783.78125 101.980469 780.308594 C 98.949219 776.835938 101.277344 772.867188 103.089844 769.660156 C 106.242188 764.054688 109.707031 758.652344 113.488281 753.449219 C 127.605469 734.042969 141.933594 714.789062 156.085938 695.394531 C 166.9375 680.503906 177.65625 665.523438 187.90625 649.652344 L 171.917969 658.140625 C 167.042969 660.71875 162.167969 663.28125 157.289062 665.832031 C 154.511719 667.277344 151.777344 667.898438 148.644531 663.960938 C 150.191406 660.199219 152.046875 656.601562 154.203125 653.15625 C 163.097656 640.832031 172.714844 628.972656 181.464844 616.527344 C 196.839844 594.496094 211.980469 572.335938 227.117188 550.019531 C 244.597656 524.457031 261.933594 498.648438 282.769531 475.585938 C 294.679688 462.390625 307.53125 450.070312 319.503906 436.933594 C 323.769531 432.140625 327.253906 426.832031 329.960938 421.015625 C 335.871094 408.261719 343.132812 396.335938 351.753906 385.238281 C 367.453125 365.609375 399.304688 356.347656 423.425781 370.574219 C 428.800781 374.09375 433.542969 378.324219 437.660156 383.257812 C 440.503906 386.402344 442.808594 388.523438 447.46875 388.960938 C 454.675781 389.707031 461.578125 392.078125 468.558594 393.976562 C 471.148438 394.960938 473.648438 396.136719 476.054688 397.507812 C 471.820312 400.167969 468.839844 402.191406 465.703125 403.96875 C 463.195312 405.410156 460.492188 406.488281 457.914062 407.828125 C 449.40625 412.023438 445.617188 419.058594 445.851562 428.324219 C 447.003906 475.53125 452.761719 514.203125 428.515625 557.675781 C 412.667969 586.964844 391.988281 611.722656 361.539062 629.335938 C 365.855469 632.609375 369.324219 635.523438 373.054688 638.0625 C 383.933594 645.386719 394.699219 652.957031 407.203125 657.496094 C 409.355469 658.355469 411.59375 658.765625 413.910156 658.726562 C 416.230469 658.683594 418.449219 658.195312 420.570312 657.257812 C 436.429688 650.863281 452.558594 645.089844 468.664062 639.40625 C 472.320312 638.25 476.066406 637.714844 479.898438 637.804688 C 480.863281 637.785156 481.808594 637.921875 482.730469 638.214844 C 483.648438 638.507812 484.5 638.941406 485.277344 639.511719 C 486.054688 640.085938 486.71875 640.765625 487.273438 641.558594 C 487.824219 642.351562 488.234375 643.210938 488.503906 644.140625 C 489.605469 647.761719 486.988281 650.195312 484.085938 651.867188 C 466.910156 661.875 449.34375 668.386719 430.714844 676.773438 Z M 299.382812 650.402344 C 302.949219 654.738281 306.175781 659.195312 309.941406 663.097656 C 315.234375 668.898438 320.886719 674.320312 326.902344 679.371094 C 333.25 684.445312 341.0625 687.203125 348.988281 684.15625 C 360.765625 679.621094 372.292969 674.058594 383.855469 668.773438 C 385.019531 668.234375 385.671875 666.5625 386.402344 665.605469 C 376.171875 658.5625 366.066406 652.527344 357.152344 645.15625 C 350.59375 639.71875 345.351562 637.058594 336.472656 640.523438 C 324.71875 645.105469 312 647.148438 299.382812 650.402344 Z M 299.382812 650.402344 " fill-opacity="1" fill-rule="nonzero"/></g></g></g><g transform="matrix(1, 0, 0, 1, 34, 746)"><g clip-path="url(#7b60229b18)"><g fill="#ffffff" fill-opacity="1"><g transform="translate(8.938369, 33.752316)"><g><path d="M 29.734375 29.625 L 26.796875 26.703125 L 34.125 18.109375 L 45.71875 3.703125 L 45.4375 3.40625 L 20.25 14.15625 L 17.5625 11.46875 L 28.5625 -13.390625 L 28.234375 -13.71875 L 14.109375 -2.3125 L 5.21875 5.203125 L 2.453125 2.4375 L 31.265625 -21.015625 L 34.984375 -17.328125 L 32.34375 -11.984375 L 23.1875 8.609375 L 23.421875 8.84375 L 44.484375 -0.375 L 49.5625 -2.78125 L 53.25 0.875 Z M 29.734375 29.625 "/></g></g></g><g fill="#ffffff" fill-opacity="1"><g transform="translate(44.66438, 67.673972)"><g><path d="M 29.390625 -15.90625 C 32.941406 -13.675781 35.015625 -10.921875 35.609375 -7.640625 C 36.210938 -4.367188 35.328125 -0.832031 32.953125 2.96875 C 30.359375 7.113281 27.332031 9.679688 23.875 10.671875 C 20.425781 11.671875 16.8125 10.988281 13.03125 8.625 C 9.507812 6.425781 7.457031 3.65625 6.875 0.3125 C 6.289062 -3.019531 7.226562 -6.660156 9.6875 -10.609375 C 12.21875 -14.648438 15.195312 -17.128906 18.625 -18.046875 C 22.050781 -18.960938 25.640625 -18.25 29.390625 -15.90625 Z M 27.109375 -13.03125 C 24.535156 -14.644531 22.160156 -15.109375 19.984375 -14.421875 C 17.816406 -13.734375 15.75 -11.8125 13.78125 -8.65625 C 11.664062 -5.269531 10.742188 -2.425781 11.015625 -0.125 C 11.296875 2.175781 12.710938 4.125 15.265625 5.71875 C 17.867188 7.34375 20.269531 7.804688 22.46875 7.109375 C 24.675781 6.410156 26.78125 4.460938 28.78125 1.265625 C 30.832031 -2.015625 31.707031 -4.816406 31.40625 -7.140625 C 31.113281 -9.460938 29.679688 -11.425781 27.109375 -13.03125 Z M 27.109375 -13.03125 "/></g></g></g><g fill="#ffffff" fill-opacity="1"><g transform="translate(74.561868, 85.797452)"><g><path d="M 26.140625 -20.640625 C 29.085938 -19.429688 31.390625 -17.757812 33.046875 -15.625 L 30.8125 -12.234375 L 30.265625 -12.28125 C 29.671875 -13.394531 28.878906 -14.40625 27.890625 -15.3125 C 26.898438 -16.21875 25.722656 -16.945312 24.359375 -17.5 C 21.722656 -18.582031 19.367188 -18.5625 17.296875 -17.4375 C 15.222656 -16.3125 13.5 -14.078125 12.125 -10.734375 C 10.738281 -7.347656 10.375 -4.484375 11.03125 -2.140625 C 11.6875 0.203125 13.332031 1.914062 15.96875 3 C 17.25 3.519531 18.628906 3.820312 20.109375 3.90625 C 21.597656 3.988281 23.007812 3.867188 24.34375 3.546875 L 24.765625 3.90625 L 22.875 7.453125 C 19.914062 7.765625 17.101562 7.375 14.4375 6.28125 C 10.519531 4.675781 7.988281 2.28125 6.84375 -0.90625 C 5.707031 -4.09375 6.019531 -7.835938 7.78125 -12.140625 C 9.570312 -16.515625 12.0625 -19.4375 15.25 -20.90625 C 18.445312 -22.382812 22.078125 -22.296875 26.140625 -20.640625 Z M 26.140625 -20.640625 "/></g></g></g><g fill="#ffffff" fill-opacity="1"><g transform="translate(101.690098, 96.747681)"><g><path d="M 17.640625 -11.5625 C 20.453125 -5.769531 23.570312 -0.144531 27 5.3125 L 26.75 5.90625 C 25.5 6.007812 24.082031 5.972656 22.5 5.796875 L 21.90625 5.375 C 18.363281 -1.144531 15.378906 -7.054688 12.953125 -12.359375 L 13.046875 -12.703125 L 25.171875 -21 L 27.609375 -23.046875 L 32.59375 -21.921875 Z M 11.140625 -6.640625 L 9.203125 2.15625 L 5.046875 1.1875 L 7.1875 -7.203125 L 11.59375 -26.78125 L 15.8125 -25.796875 Z M 11.140625 -6.640625 "/></g></g></g><g fill="#ffffff" fill-opacity="1"><g transform="translate(131.331945, 103.121769)"><g><path d="M 10.234375 -7.96875 L 9.40625 0.984375 L 5.15625 0.546875 L 6.234375 -8.046875 L 8.15625 -28.015625 L 12.46875 -27.5625 Z M 10.234375 -7.96875 "/></g></g></g><g fill="#ffffff" fill-opacity="1"><g transform="translate(148.556975, 105.455427)"><g><path d="M 28.65625 -9.703125 L 29.046875 -1.109375 L 24.4375 -0.9375 L 8.515625 -22.25 L 8.21875 -22.234375 L 8.640625 -9.921875 L 9.109375 -0.34375 L 5.1875 -0.203125 L 5.03125 -8.671875 L 4.15625 -28.90625 L 8.703125 -29.078125 L 24.625 -7.75 L 25.03125 -7.765625 L 24.09375 -29.484375 L 28.0625 -29.921875 Z M 28.65625 -9.703125 "/></g></g></g><g fill="#ffffff" fill-opacity="1"><g transform="translate(186.027445, 103.54237)"><g><path d="M 10.703125 -32.203125 C 13.628906 -32.878906 16.71875 -32.921875 19.96875 -32.328125 L 19.5 -27.953125 L 19 -27.84375 C 17.394531 -28.414062 15.972656 -28.75 14.734375 -28.84375 C 13.492188 -28.9375 12.203125 -28.832031 10.859375 -28.53125 C 7.660156 -27.789062 5.472656 -26.335938 4.296875 -24.171875 C 3.117188 -22.003906 2.96875 -19.007812 3.84375 -15.1875 C 4.6875 -11.519531 6.023438 -9.039062 7.859375 -7.75 C 9.691406 -6.457031 12.203125 -6.175781 15.390625 -6.90625 C 16.328125 -7.113281 17.207031 -7.398438 18.03125 -7.765625 C 18.851562 -8.140625 19.832031 -8.695312 20.96875 -9.4375 L 20.3125 -12.234375 L 19.359375 -16.203125 L 23.171875 -17.390625 L 25.484375 -7.28125 C 21.960938 -5.28125 18.8125 -3.960938 16.03125 -3.328125 C 11.613281 -2.316406 8 -2.738281 5.1875 -4.59375 C 2.375 -6.445312 0.460938 -9.585938 -0.546875 -14.015625 C -1.648438 -18.804688 -1.210938 -22.769531 0.765625 -25.90625 C 2.753906 -29.039062 6.066406 -31.140625 10.703125 -32.203125 Z M 10.703125 -32.203125 "/></g></g></g><g fill="#ffffff" fill-opacity="1"><g transform="translate(218.26132, 95.79337)"><g><path d="M 11.53125 -20.96875 C 15.78125 -21.820312 18.617188 -20.539062 20.046875 -17.125 C 21.097656 -14.570312 20.894531 -12.242188 19.4375 -10.140625 C 17.988281 -8.035156 15.34375 -6.1875 11.5 -4.59375 C 9.207031 -3.632812 6.972656 -2.765625 4.796875 -1.984375 L 1.640625 -10.0625 L -6.21875 -28.5 L 2.078125 -32 C 4.722656 -33.101562 7.015625 -33.40625 8.953125 -32.90625 C 10.898438 -32.40625 12.300781 -31.125 13.15625 -29.0625 C 13.789062 -27.53125 13.957031 -26.078125 13.65625 -24.703125 C 13.351562 -23.328125 12.644531 -22.082031 11.53125 -20.96875 Z M 9.140625 -26.84375 C 8.585938 -28.144531 7.757812 -28.921875 6.65625 -29.171875 C 5.5625 -29.429688 4.078125 -29.171875 2.203125 -28.390625 L -1.0625 -27.046875 L 2.296875 -18.796875 L 7.109375 -20.609375 C 8.304688 -21.453125 9.078125 -22.367188 9.421875 -23.359375 C 9.773438 -24.359375 9.679688 -25.519531 9.140625 -26.84375 Z M 10.75 -7.828125 C 13.039062 -8.785156 14.632812 -9.914062 15.53125 -11.21875 C 16.425781 -12.53125 16.546875 -13.972656 15.890625 -15.546875 C 15.359375 -16.816406 14.519531 -17.628906 13.375 -17.984375 C 12.226562 -18.335938 10.734375 -18.273438 8.890625 -17.796875 L 3.65625 -15.5625 L 5.125 -11.875 L 7.40625 -6.640625 C 8.5625 -6.992188 9.675781 -7.390625 10.75 -7.828125 Z M 10.75 -7.828125 "/></g></g></g><g fill="#ffffff" fill-opacity="1"><g transform="translate(245.555972, 83.893952)"><g><path d="M 3.671875 -12.453125 L 8.21875 -4.671875 L 4.515625 -2.5625 L 0.375 -10.1875 L -9.6875 -27.53125 L -5.9375 -29.671875 Z M 3.671875 -12.453125 "/></g></g></g><g fill="#ffffff" fill-opacity="1"><g transform="translate(260.535295, 75.710536)"><g><path d="M 7.765625 -20.3125 C 11.785156 -18.851562 15.96875 -17.59375 20.3125 -16.53125 L 20.625 -16.046875 C 19.632812 -14.679688 18.75 -13.648438 17.96875 -12.953125 L 17.078125 -12.875 C 12.085938 -14.65625 8.234375 -16.117188 5.515625 -17.265625 L 1.203125 -13.953125 L 2.0625 -12.8125 L 7.5625 -5.671875 L 4.15625 -3.109375 L -0.90625 -10.140625 L -13.078125 -26.09375 L -5.265625 -32 C -2.828125 -33.820312 -0.53125 -34.65625 1.625 -34.5 C 3.78125 -34.351562 5.664062 -33.203125 7.28125 -31.046875 C 8.457031 -29.484375 9.082031 -27.769531 9.15625 -25.90625 C 9.238281 -24.039062 8.773438 -22.175781 7.765625 -20.3125 Z M -0.890625 -16.859375 L 3.546875 -19.96875 C 5.710938 -22.78125 5.828125 -25.484375 3.890625 -28.078125 C 2.878906 -29.421875 1.71875 -30.132812 0.40625 -30.21875 C -0.90625 -30.300781 -2.398438 -29.753906 -4.078125 -28.578125 L -7.578125 -25.875 Z M -0.890625 -16.859375 "/></g></g></g><g fill="#ffffff" fill-opacity="1"><g transform="translate(285.772429, 56.681396)"><g><path d="M -9.96875 -31.765625 C -6.988281 -34.960938 -3.847656 -36.613281 -0.546875 -36.71875 C 2.753906 -36.820312 6.007812 -35.378906 9.21875 -32.390625 C 12.90625 -28.953125 14.863281 -25.390625 15.09375 -21.703125 C 15.332031 -18.023438 13.84375 -14.457031 10.625 -11 C 9.707031 -10.007812 8.59375 -8.847656 7.28125 -7.515625 C 5.96875 -6.191406 4.71875 -4.953125 3.53125 -3.796875 L -2.671875 -9.828125 L -17.484375 -23.375 Z M 8.53125 -13.890625 C 10.625 -16.140625 11.554688 -18.507812 11.328125 -21 C 11.109375 -23.488281 9.625 -26.015625 6.875 -28.578125 C 4.175781 -31.097656 1.644531 -32.382812 -0.71875 -32.4375 C -3.09375 -32.488281 -5.367188 -31.351562 -7.546875 -29.03125 C -8.828125 -27.644531 -10.28125 -25.972656 -11.90625 -24.015625 L -0.203125 -12.984375 L 3.78125 -9.3125 C 4.601562 -10.070312 5.460938 -10.875 6.359375 -11.71875 C 7.253906 -12.570312 7.976562 -13.296875 8.53125 -13.890625 Z M 8.53125 -13.890625 "/></g></g></g></g></g><g transform="matrix(1, 0, 0, 1, 443, 114)"><g clip-path="url(#0c66d8a5aa)"><g fill="#ffffff" fill-opacity="1"><g transform="translate(80.019378, 220.383248)"><g><path d="M 7.8125 -31.09375 L 6.65625 -26.5 L 2.875 -26.5625 L -3.796875 -26.09375 L -5.96875 -18.09375 L -7.640625 -10.765625 L -2.25 -7.109375 L 1.328125 -5.265625 L 0.203125 -0.78125 L -32.34375 -22.921875 L -31.046875 -28.125 Z M -7.90625 -25.8125 L -27.03125 -24.4375 L -27.125 -24.046875 L -11.09375 -13.125 L -9.40625 -19.359375 Z M -7.90625 -25.8125 "/></g></g></g><g fill="#ffffff" fill-opacity="1"><g transform="translate(87.41461, 191.014995)"><g><path d="M -19.78125 -25.71875 C -18.5 -28.476562 -16.851562 -30.289062 -14.84375 -31.15625 C -12.832031 -32.019531 -10.566406 -31.867188 -8.046875 -30.703125 C -5.117188 -29.335938 -3.257812 -27.335938 -2.46875 -24.703125 C -1.6875 -22.078125 -2.054688 -19.125 -3.578125 -15.84375 L -5.0625 -12.65625 L -4.21875 -12.265625 L 3.984375 -8.578125 L 2.1875 -4.703125 L -5.578125 -8.5 L -23.859375 -16.796875 Z M -6.03125 -18.5 C -5.007812 -22.226562 -6.207031 -24.882812 -9.625 -26.46875 C -11.257812 -27.226562 -12.695312 -27.332031 -13.9375 -26.78125 C -15.175781 -26.226562 -16.257812 -25.050781 -17.1875 -23.25 L -18.96875 -19.25 L -8.171875 -14.15625 Z M -6.03125 -18.5 "/></g></g></g><g fill="#ffffff" fill-opacity="1"><g transform="translate(98.053582, 168.707859)"><g><path d="M -2.578125 -12.71875 L 5.0625 -7.984375 L 2.78125 -4.375 L -4.4375 -9.15625 L -21.453125 -19.78125 L -19.125 -23.4375 Z M -2.578125 -12.71875 "/></g></g></g><g fill="#ffffff" fill-opacity="1"><g transform="translate(105.431882, 157.198849)"><g/></g></g><g fill="#ffffff" fill-opacity="1"><g transform="translate(108.636365, 150.696028)"><g><path d="M 25.546875 -25 L 22.796875 -22.296875 L 16.203125 -28.125 L 5.8125 -36.515625 L 5.5625 -36.265625 L 12.828125 -17.078125 L 10.390625 -14.6875 L -8.3125 -22.6875 L -8.5625 -22.453125 L -0.59375 -12.171875 L 5.1875 -5.078125 L 2.5625 -2.5 L -15.25 -25.25 L -11.671875 -28.765625 L -7.625 -26.671875 L 7.671875 -20.015625 L 7.921875 -20.265625 L 1.65625 -36.0625 L -0.140625 -40.046875 L 3.375 -43.484375 Z M 25.546875 -25 "/></g></g></g><g fill="#ffffff" fill-opacity="1"><g transform="translate(134.236069, 125.655935)"><g><path d="M -1.140625 -33.390625 C 2.441406 -35.578125 5.832031 -36.207031 9.03125 -35.28125 C 12.226562 -34.363281 15 -31.992188 17.34375 -28.171875 C 19.894531 -24.003906 20.847656 -20.15625 20.203125 -16.625 C 19.554688 -13.09375 17.332031 -10.160156 13.53125 -7.828125 C 9.988281 -5.648438 6.59375 -5.039062 3.34375 -6 C 0.101562 -6.96875 -2.734375 -9.4375 -5.171875 -13.40625 C -7.660156 -17.46875 -8.550781 -21.234375 -7.84375 -24.703125 C -7.132812 -28.179688 -4.898438 -31.078125 -1.140625 -33.390625 Z M 0.421875 -30.09375 C -2.171875 -28.5 -3.644531 -26.578125 -4 -24.328125 C -4.351562 -22.078125 -3.554688 -19.363281 -1.609375 -16.1875 C 0.472656 -12.78125 2.609375 -10.6875 4.796875 -9.90625 C 6.992188 -9.132812 9.367188 -9.53125 11.921875 -11.09375 C 14.546875 -12.707031 16.035156 -14.65625 16.390625 -16.9375 C 16.742188 -19.226562 15.929688 -21.984375 13.953125 -25.203125 C 11.929688 -28.503906 9.816406 -30.539062 7.609375 -31.3125 C 5.398438 -32.082031 3.003906 -31.675781 0.421875 -30.09375 Z M 0.421875 -30.09375 "/></g></g></g><g fill="#ffffff" fill-opacity="1"><g transform="translate(158.567121, 110.18869)"><g><path d="M 24.453125 -17.8125 L 27.390625 -9.734375 L 23.046875 -8.1875 L 1.453125 -23.765625 L 1.1875 -23.671875 L 5.28125 -12.046875 L 8.578125 -3.046875 L 4.890625 -1.734375 L 2.203125 -9.78125 L -4.671875 -28.828125 L -0.390625 -30.34375 L 21.1875 -14.75 L 21.5625 -14.890625 L 14.1875 -35.328125 L 17.828125 -36.921875 Z M 24.453125 -17.8125 "/></g></g></g><g fill="#ffffff" fill-opacity="1"><g transform="translate(188.725838, 100.054379)"><g><path d="M 7.515625 -10.578125 L 9.28125 -1.75 L 5.09375 -0.96875 L 3.65625 -9.5 L -0.234375 -29.1875 L 4.015625 -29.984375 Z M 7.515625 -10.578125 "/></g></g></g><g fill="#ffffff" fill-opacity="1"><g transform="translate(201.324378, 97.213118)"><g><path d="M 21.5625 -29.734375 L 21.515625 -26.09375 L 16.140625 -26.171875 L 13.25 -26 L 14.0625 -9.875 L 14.78125 -0.90625 L 10.484375 -0.640625 L 10.125 -9.296875 L 9 -25.734375 L 6.125 -25.5625 L 0.6875 -24.828125 L 0.3125 -25.203125 L 0.4375 -28.8125 L 21.328125 -30.078125 Z M 21.5625 -29.734375 "/></g></g></g><g fill="#ffffff" fill-opacity="1"><g transform="translate(223.596198, 95.285099)"><g><path d="M 19.828125 -26.90625 C 23.992188 -26.40625 27.046875 -24.796875 28.984375 -22.078125 C 30.921875 -19.367188 31.617188 -15.785156 31.078125 -11.328125 C 30.503906 -6.484375 28.863281 -2.875 26.15625 -0.5 C 23.457031 1.863281 19.894531 2.785156 15.46875 2.265625 C 11.34375 1.765625 8.300781 0.128906 6.34375 -2.640625 C 4.394531 -5.410156 3.695312 -9.101562 4.25 -13.71875 C 4.820312 -18.445312 6.460938 -21.957031 9.171875 -24.25 C 11.890625 -26.539062 15.441406 -27.425781 19.828125 -26.90625 Z M 19 -23.34375 C 15.976562 -23.695312 13.628906 -23.101562 11.953125 -21.5625 C 10.285156 -20.019531 9.226562 -17.394531 8.78125 -13.6875 C 8.3125 -9.726562 8.691406 -6.765625 9.921875 -4.796875 C 11.160156 -2.835938 13.269531 -1.679688 16.25 -1.328125 C 19.300781 -0.960938 21.675781 -1.566406 23.375 -3.140625 C 25.070312 -4.710938 26.144531 -7.375 26.59375 -11.125 C 27.050781 -14.96875 26.648438 -17.875 25.390625 -19.84375 C 24.140625 -21.8125 22.007812 -22.976562 19 -23.34375 Z M 19 -23.34375 "/></g></g></g><g fill="#ffffff" fill-opacity="1"><g transform="translate(252.469292, 98.609853)"><g><path d="M 21.046875 -5.453125 C 22.179688 -1.328125 23.578125 2.816406 25.234375 6.984375 L 25.03125 7.5 C 23.34375 7.488281 21.988281 7.363281 20.96875 7.125 L 20.390625 6.453125 C 18.953125 1.359375 17.910156 -2.625 17.265625 -5.5 L 12.078125 -7.09375 L 11.640625 -5.734375 L 9 2.875 L 4.9375 1.578125 L 7.75 -6.625 L 13.6875 -25.78125 L 23.03125 -22.84375 C 25.9375 -21.914062 27.945312 -20.523438 29.0625 -18.671875 C 30.1875 -16.816406 30.34375 -14.609375 29.53125 -12.046875 C 28.9375 -10.179688 27.898438 -8.675781 26.421875 -7.53125 C 24.941406 -6.394531 23.148438 -5.703125 21.046875 -5.453125 Z M 13.203125 -10.484375 L 18.328125 -8.671875 C 21.878906 -8.546875 24.144531 -10.019531 25.125 -13.09375 C 25.644531 -14.695312 25.554688 -16.054688 24.859375 -17.171875 C 24.160156 -18.285156 22.851562 -19.1875 20.9375 -19.875 L 16.6875 -21.171875 Z M 13.203125 -10.484375 "/></g></g></g></g></g></svg>